<?xml version="1.0" encoding="iso-8859-1"?>
<!-- Uploaded to: SVG Repo, www.svgrepo.com, Generator: SVG Repo Mixer Tools -->
<svg height="800px" width="800px" version="1.1" id="Layer_1" xmlns="http://www.w3.org/2000/svg" xmlns:xlink="http://www.w3.org/1999/xlink" 
	 viewBox="0 0 512.001 512.001" xml:space="preserve">
<path style="fill:#F5E038;" d="M452.677,204.693c-9.446,0-17.102,7.658-17.102,17.102V332.96h34.205V221.795
	C469.78,212.351,462.123,204.693,452.677,204.693z"/>
<path style="opacity:0.7;fill:#F9AA0C;enable-background:new    ;" d="M469.78,221.795c0-8.095-5.63-14.859-13.183-16.633V332.96
	h13.183V221.795z"/>
<path style="fill:#F5E038;" d="M418.473,238.898c-9.446,0-17.102,7.658-17.102,17.102v111.165h34.205V256
	C435.575,246.555,427.919,238.898,418.473,238.898z"/>
<path style="opacity:0.7;fill:#F9AA0C;enable-background:new    ;" d="M435.575,256c0-7.838-5.279-14.429-12.471-16.45v127.615
	h12.471V256z"/>
<path style="fill:#F5E038;" d="M384.268,281.653c-9.446,0-17.102,7.658-17.102,17.102v111.165h34.205V298.756
	C401.371,289.311,393.714,281.653,384.268,281.653z"/>
<path style="opacity:0.7;fill:#F9AA0C;enable-background:new    ;" d="M401.371,298.756c0-7.838-5.279-14.429-12.471-16.45v127.615
	h12.471V298.756z"/>
<g>
	<path style="fill:#F9C900;" d="M375.717,503.983v-42.756l51.307-34.205l76.96-76.96v-94.546c0-9.719-8.108-17.545-17.929-17.083
		c-9.199,0.433-16.276,8.357-16.276,17.566v59.858l-68.409,42.756h-34.205c-37.781,0-68.409,30.628-68.409,68.409v76.96"/>
	<path style="fill:#F9C900;" d="M446.57,312.407l-45.199,45.884l24.187,24.187l45.38-46.067c6.628-6.729,6.547-17.558-0.182-24.186
		S453.198,305.679,446.57,312.407z"/>
	<path style="fill:#F9C900;" d="M415.606,372.526l9.951,9.952l45.38-46.067c5.751-5.838,6.443-14.759,2.132-21.349L415.606,372.526z
		"/>
</g>
<path style="fill:#F9AA0C;" d="M486.882,238.438v103.073l-76.96,76.96l-55.549,31.743c-2.665,1.522-4.309,4.356-4.309,7.425v46.344
	h25.653v-42.756l51.307-34.205l76.96-76.96v-94.546C503.984,246.073,496.325,238.441,486.882,238.438z"/>
<path style="fill:#F5E038;" d="M59.325,204.693c9.446,0,17.102,7.658,17.102,17.102V332.96H42.222V221.795
	C42.222,212.351,49.879,204.693,59.325,204.693z"/>
<path style="opacity:0.7;fill:#F9AA0C;enable-background:new    ;" d="M42.222,221.795c0-8.095,5.63-14.859,13.183-16.633V332.96
	H42.222V221.795z"/>
<path style="fill:#F5E038;" d="M93.529,238.898c9.446,0,17.102,7.658,17.102,17.102v111.165H76.427V256
	C76.427,246.555,84.083,238.898,93.529,238.898z"/>
<path style="opacity:0.7;fill:#F9AA0C;enable-background:new    ;" d="M76.427,256c0-7.838,5.279-14.429,12.471-16.45v127.615
	H76.427V256z"/>
<path style="fill:#F5E038;" d="M127.734,281.653c9.446,0,17.102,7.658,17.102,17.102v111.165h-34.205V298.756
	C110.632,289.311,118.288,281.653,127.734,281.653z"/>
<path style="opacity:0.7;fill:#F9AA0C;enable-background:new    ;" d="M110.632,298.756c0-7.838,5.279-14.429,12.471-16.45v127.615
	h-12.471V298.756z"/>
<g>
	<path style="fill:#F9C900;" d="M136.285,503.983v-42.756l-51.307-34.205l-76.96-76.96v-94.546c0-9.719,8.108-17.545,17.929-17.083
		c9.199,0.433,16.276,8.357,16.276,17.566v59.858l68.409,42.756h34.205c37.781,0,68.409,30.628,68.409,68.409v76.96"/>
	<path style="fill:#F9C900;" d="M65.432,312.407l45.199,45.884l-24.187,24.187l-45.38-46.067
		c-6.628-6.729-6.547-17.558,0.182-24.186S58.804,305.679,65.432,312.407z"/>
	<path style="fill:#F9C900;" d="M96.396,372.526l-9.951,9.952l-45.38-46.067c-5.751-5.838-6.443-14.759-2.132-21.349L96.396,372.526
		z"/>
</g>
<path style="fill:#F9AA0C;" d="M25.12,238.438v103.073l76.96,76.96l55.549,31.743c2.665,1.522,4.309,4.356,4.309,7.425v46.344
	h-25.653v-42.756l-51.307-34.205l-76.96-76.96v-94.546C8.018,246.073,15.677,238.441,25.12,238.438z"/>
<polygon style="fill:#40CACF;" points="332.961,127.733 273.103,127.733 273.103,50.772 238.899,50.772 238.899,127.733 
	179.041,127.733 179.041,161.937 238.899,161.937 238.899,324.409 273.103,324.409 273.103,161.937 332.961,161.937 "/>
<path d="M504.22,237.34c-5.016-4.786-11.606-7.237-18.541-6.915c-2.775,0.13-5.422,0.722-7.882,1.689v-10.319
	c0-13.851-11.268-25.119-25.119-25.119s-25.119,11.268-25.119,25.119v10.793c-2.82-1.098-5.882-1.707-9.086-1.707
	c-13.851,0-25.119,11.268-25.119,25.119v19.344c-2.82-1.098-5.882-1.707-9.086-1.707c-13.851,0-25.119,11.268-25.119,25.119v52.265
	c-38.387,4.02-68.409,36.57-68.409,76.003v76.96c0,4.428,3.589,8.017,8.017,8.017c4.427,0,8.017-3.588,8.017-8.017v-76.96
	c0-33.3,27.092-60.392,60.392-60.392h34.205c2.908,0,5.448-1.554,6.853-3.873l44.058-44.726c1.703-1.728,3.977-2.69,6.404-2.709
	c0.022,0,0.046,0,0.069,0c2.401,0,4.661,0.926,6.374,2.612c3.527,3.475,3.572,9.321,0.097,12.849l-45.38,46.067
	c-2.859,2.902-3.053,7.634-0.444,10.762c2.992,3.585,8.59,3.816,11.866,0.491l45.38-46.067c4.708-4.78,7.274-11.108,7.224-17.817
	c-0.045-6.013-2.191-11.683-6.076-16.184V256c0-5.046,3.875-9.334,8.636-9.557c5.12-0.255,9.536,3.946,9.536,9.074v91.226
	l-23.305,23.305c-2.919,2.919-3.113,7.74-0.426,10.878c2.997,3.501,8.503,3.72,11.763,0.461l25.653-25.653
	c1.504-1.504,2.348-3.542,2.348-5.669v-94.546C512.001,248.683,509.165,242.058,504.22,237.34z M409.387,256
	c0-5.01,4.076-9.086,9.086-9.086s9.086,4.076,9.086,9.086v61.461v2.138c0,0.22,0.016,0.435,0.033,0.65l-18.204,18.48V256z
	 M384.268,289.67c5.01,0,9.086,4.076,9.086,9.086v50.772v1.069h-18.171v-51.841C375.183,293.746,379.258,289.67,384.268,289.67z
	 M458.565,299.291c-5.483,0.041-10.685,1.827-14.973,5.087v-82.583c0-5.01,4.076-9.086,9.086-9.086s9.086,4.076,9.086,9.086v77.693
	c-0.992-0.118-1.991-0.198-3.005-0.198C458.694,299.29,458.629,299.29,458.565,299.291z"/>
<path d="M447.009,395.7l-25.092,25.093l-50.646,33.764c-2.23,1.487-3.57,3.989-3.57,6.67v42.756c0,4.428,3.589,8.017,8.017,8.017
	c4.427,0,8.017-3.588,8.017-8.017v-38.465l47.737-31.824c0.439-0.292,0.849-0.629,1.222-1.002l25.653-25.653
	c3.131-3.132,3.131-8.207,0-11.338C455.216,392.571,450.139,392.571,447.009,395.7z"/>
<path d="M152.853,351.02v-52.265c0-13.851-11.268-25.119-25.119-25.119c-3.203,0-6.266,0.609-9.086,1.707V256
	c0-13.851-11.268-25.119-25.119-25.119c-3.203,0-6.266,0.609-9.086,1.707v-10.793c0-13.851-11.268-25.119-25.119-25.119
	s-25.119,11.268-25.119,25.119v10.319c-2.46-0.967-5.107-1.557-7.882-1.689c-6.93-0.309-13.525,2.128-18.541,6.915
	c-4.946,4.718-7.782,11.343-7.782,18.177v17.585c0,4.428,3.589,8.017,8.017,8.017s8.017-3.588,8.017-8.017v-17.585
	c0-5.123,4.415-9.335,9.535-9.074c4.762,0.223,8.637,4.512,8.637,9.557v52.057c-8.421,9.794-8.077,24.613,1.148,33.98l45.38,46.067
	c3.283,3.331,8.865,3.087,11.866-0.491c2.617-3.121,2.41-7.864-0.444-10.762l-45.379-46.066c-3.517-3.57-3.473-9.334,0.096-12.849
	c3.521-3.47,9.387-3.419,12.849,0.097l44.058,44.726c1.406,2.317,3.944,3.872,6.853,3.872h34.205
	c33.3,0,60.392,27.092,60.392,60.392v76.96c0,4.428,3.589,8.017,8.017,8.017s8.017-3.588,8.017-8.017v-76.96
	C221.262,387.589,191.24,355.04,152.853,351.02z M127.734,289.67c5.01,0,9.086,4.076,9.086,9.086v51.841h-18.171v-51.841
	C118.648,293.746,122.724,289.67,127.734,289.67z M93.529,246.914c5.01,0,9.086,4.076,9.086,9.086v82.728l-18.204-18.48
	c0.017-0.214,0.033-0.43,0.033-0.649V256C84.444,250.99,88.519,246.914,93.529,246.914z M53.437,299.291
	c-1.077-0.01-2.144,0.057-3.198,0.182v-77.678c0-5.01,4.076-9.086,9.086-9.086s9.086,4.076,9.086,9.086v82.583
	C64.122,301.118,58.921,299.332,53.437,299.291z"/>
<path d="M140.732,454.558l-50.646-33.764l-74.051-74.051v-30.885c0-4.428-3.589-8.017-8.017-8.017s-8.017,3.588-8.017,8.017v34.205
	c0,2.126,0.844,4.164,2.348,5.669l76.96,76.96c0.373,0.373,0.782,0.709,1.222,1.002l47.737,31.824v38.465
	c0,4.428,3.589,8.017,8.017,8.017s8.017-3.588,8.017-8.017v-42.756C144.302,458.547,142.962,456.043,140.732,454.558z"/>
<path d="M340.978,161.937v-34.205c0-4.428-3.589-8.017-8.017-8.017H281.12V50.772c0-4.428-3.589-8.017-8.017-8.017h-34.205
	c-4.427,0-8.017,3.588-8.017,8.017v68.944h-51.841c-4.427,0-8.017,3.588-8.017,8.017v34.205c0,4.428,3.589,8.017,8.017,8.017h51.841
	v154.455c0,4.428,3.589,8.017,8.017,8.017h34.205c4.427,0,8.017-3.588,8.017-8.017V169.954h51.841
	C337.389,169.954,340.978,166.366,340.978,161.937z M324.945,153.921h-51.841c-4.427,0-8.017,3.588-8.017,8.017v154.455h-18.171
	V161.937c0-4.428-3.589-8.017-8.017-8.017h-51.841v-18.171h51.841c4.427,0,8.017-3.588,8.017-8.017V58.789h18.171v68.944
	c0,4.428,3.589,8.017,8.017,8.017h51.841V153.921z"/>
<path d="M256.001,33.136c4.427,0,8.017-3.588,8.017-8.017V8.017c0-4.428-3.589-8.017-8.017-8.017c-4.427,0-8.017,3.588-8.017,8.017
	v17.102C247.984,29.547,251.574,33.136,256.001,33.136z"/>
<path d="M189.201,45.166c2.356,4.081,7.897,5.242,11.7,2.445c3.246-2.388,4.199-6.975,2.186-10.461l-8.551-14.811
	c-2.215-3.835-7.118-5.147-10.951-2.934c-3.834,2.214-5.148,7.117-2.934,10.951L189.201,45.166z"/>
<path d="M133.505,83.368l14.811,8.551c4.091,2.36,9.463,0.583,11.355-3.733c1.618-3.691,0.149-8.14-3.338-10.153l-14.811-8.551
	c-3.835-2.214-8.737-0.901-10.951,2.934C128.357,76.252,129.671,81.155,133.505,83.368z"/>
<path d="M144.302,144.835c0-4.428-3.589-8.017-8.017-8.017h-17.102c-4.427,0-8.017,3.588-8.017,8.017
	c0,4.428,3.589,8.017,8.017,8.017h17.102C140.712,152.852,144.302,149.264,144.302,144.835z"/>
<path d="M137.521,221.262c1.36,0,2.739-0.346,4.001-1.075l14.811-8.551c3.834-2.214,5.148-7.117,2.934-10.951
	c-2.215-3.835-7.117-5.147-10.951-2.934l-14.811,8.551c-2.982,1.722-4.557,5.27-3.829,8.637
	C130.466,218.588,133.788,221.262,137.521,221.262z"/>
<path d="M187.584,271.342c2.771,0,5.465-1.438,6.95-4.009l8.551-14.811c2.214-3.834,0.9-8.737-2.934-10.951
	c-3.835-2.213-8.737-0.901-10.951,2.934l-8.551,14.811C177.628,264.549,181.505,271.342,187.584,271.342z"/>
<path d="M311.851,241.57c-3.834,2.214-5.148,7.117-2.934,10.951l8.551,14.811c2.356,4.081,7.897,5.242,11.7,2.445
	c3.246-2.388,4.199-6.975,2.186-10.461l-8.551-14.811C320.588,240.669,315.684,239.358,311.851,241.57z"/>
<path d="M355.67,211.636l14.811,8.551c4.091,2.36,9.463,0.583,11.355-3.733c1.618-3.691,0.149-8.14-3.338-10.153l-14.811-8.551
	c-3.834-2.214-8.737-0.901-10.951,2.934C350.521,204.519,351.835,209.422,355.67,211.636z"/>
<path d="M392.819,136.818h-17.102c-4.427,0-8.017,3.588-8.017,8.017c0,4.428,3.589,8.017,8.017,8.017h17.102
	c4.427,0,8.017-3.588,8.017-8.017C400.836,140.407,397.247,136.818,392.819,136.818z"/>
<path d="M359.685,92.995c1.36,0,2.738-0.346,4.001-1.075l14.811-8.551c3.834-2.214,5.148-7.117,2.934-10.951
	c-2.215-3.835-7.118-5.147-10.951-2.934l-14.811,8.551c-2.982,1.722-4.557,5.27-3.829,8.637
	C352.631,90.32,355.952,92.995,359.685,92.995z"/>
<path d="M311.851,48.1c3.788,2.186,8.768,0.848,10.951-2.934l8.551-14.811c2.214-3.834,0.9-8.737-2.934-10.951
	c-3.835-2.214-8.737-0.901-10.951,2.934l-8.551,14.811C306.703,40.984,308.017,45.887,311.851,48.1z"/>
<path d="M59.45,40.613l51.839,29.929c1.262,0.729,2.641,1.075,4.001,1.075c2.771,0,5.465-1.438,6.95-4.009
	c2.214-3.834,0.9-8.737-2.934-10.951L67.466,26.728c-3.835-2.213-8.737-0.901-10.951,2.934
	C54.301,33.496,55.615,38.399,59.45,40.613z"/>
<path d="M25.12,152.852h59.858c4.427,0,8.017-3.588,8.017-8.017c0-4.428-3.589-8.017-8.017-8.017H25.12
	c-4.427,0-8.017,3.588-8.017,8.017C17.103,149.264,20.693,152.852,25.12,152.852z"/>
<path d="M419.007,144.835c0,4.428,3.589,8.017,8.017,8.017h59.858c4.427,0,8.017-3.588,8.017-8.017c0-4.428-3.589-8.017-8.017-8.017
	h-59.858C422.597,136.818,419.007,140.407,419.007,144.835z"/>
<path d="M396.713,71.617c1.36,0,2.739-0.346,4.001-1.075l51.839-29.929c3.834-2.214,5.148-7.117,2.934-10.951
	c-2.214-3.835-7.117-5.146-10.951-2.934l-51.839,29.929c-3.834,2.214-5.148,7.117-2.934,10.951
	C391.248,70.179,393.943,71.617,396.713,71.617z"/>
</svg>