<?xml version="1.0" encoding="iso-8859-1"?>
<!-- Uploaded to: SVG Repo, www.svgrepo.com, Generator: SVG Repo Mixer Tools -->
<svg version="1.1" id="Layer_1" xmlns="http://www.w3.org/2000/svg" xmlns:xlink="http://www.w3.org/1999/xlink" 
	 viewBox="0 0 512 512" xml:space="preserve">
<g>
	<rect x="7.447" y="426.046" style="fill:#F95428;" width="496.918" height="42.138"/>
	<rect x="7.447" y="43.987" style="fill:#F95428;" width="496.918" height="42.126"/>
</g>
<path style="fill:#F7B239;" d="M504.37,86.113v339.938H7.447V86.113H504.37z M362.257,362.442V238.317h-88.596v-53.068h88.596
	v-35.516H238.144v88.584h-53.068v-88.584h-35.528v124.113h88.596v53.068h-88.596v35.528h124.113v-88.596h53.08v88.596H362.257z"/>
<polygon style="fill:#F95428;" points="362.257,238.318 362.257,362.442 326.741,362.442 326.741,273.846 273.661,273.846 
	273.661,362.442 149.548,362.442 149.548,326.914 238.144,326.914 238.144,273.846 149.548,273.846 149.548,149.733 
	185.076,149.733 185.076,238.318 238.144,238.318 238.144,149.733 362.257,149.733 362.257,185.249 273.661,185.249 
	273.661,238.318 "/>
<path d="M362.35,369.893h-35.516c-4.164,0-7.539-3.374-7.539-7.538v-81.058h-38.003v29.311c0,4.164-3.374,7.539-7.539,7.539
	s-7.538-3.374-7.538-7.539v-36.849c0-4.164,3.374-7.538,7.538-7.538h53.08c4.164,0,7.538,3.374,7.538,7.538v81.058h20.439V245.769
	h-81.058c-4.164,0-7.538-3.375-7.538-7.538v-53.068c0-4.163,3.374-7.538,7.538-7.538h81.058v-20.439H245.775v81.046
	c0,4.163-3.375,7.538-7.539,7.538h-53.068c-4.163,0-7.539-3.375-7.539-7.538v-81.046h-20.451v109.036h81.058
	c4.163,0,7.539,3.374,7.539,7.539v53.068c0,4.164-3.375,7.539-7.539,7.539h-81.058v20.451h109.036v-14.7
	c0-4.164,3.374-7.538,7.538-7.538s7.539,3.374,7.539,7.538v22.238c0,4.164-3.374,7.538-7.539,7.538H149.639
	c-4.163,0-7.538-3.374-7.538-7.538v-35.528c0-4.164,3.375-7.539,7.538-7.539h81.058v-37.991h-81.058
	c-4.163,0-7.538-3.374-7.538-7.539V149.645c0-4.163,3.375-7.539,7.538-7.539h35.528c4.163,0,7.538,3.375,7.538,7.539v81.046h37.991
	v-81.046c0-4.163,3.375-7.539,7.538-7.539h124.113c4.164,0,7.538,3.375,7.538,7.539v35.516c0,4.163-3.374,7.538-7.538,7.538h-81.058
	v37.991h81.058c4.164,0,7.538,3.375,7.538,7.539v124.125C369.888,366.519,366.513,369.893,362.35,369.893z"/>
<path d="M504.461,433.502H7.539c-4.163,0-7.539-3.374-7.539-7.539s3.375-7.538,7.539-7.538h496.923c4.164,0,7.539,3.374,7.539,7.538
	S508.626,433.502,504.461,433.502z"/>
<path d="M372.854,93.564H7.539C3.375,93.564,0,90.189,0,86.025s3.375-7.539,7.539-7.539h365.316c4.164,0,7.538,3.375,7.538,7.539
	S377.018,93.564,372.854,93.564z"/>
<path d="M504.461,93.564H402.362c-4.164,0-7.538-3.375-7.538-7.538s3.374-7.539,7.538-7.539h102.099
	c4.164,0,7.539,3.375,7.539,7.539S508.626,93.564,504.461,93.564z"/>
<path d="M504.461,475.639H101.376c-4.163,0-7.539-3.374-7.539-7.539c0-4.164,3.375-7.538,7.539-7.538h395.547V51.438H15.077v409.125
	h56.79c4.163,0,7.538,3.374,7.538,7.538c0,4.164-3.375,7.539-7.538,7.539H7.539c-4.163,0-7.539-3.374-7.539-7.539V43.899
	c0-4.163,3.375-7.539,7.539-7.539h496.923c4.164,0,7.539,3.375,7.539,7.539v424.202C512,472.265,508.626,475.639,504.461,475.639z"
	/>
</svg>