<?xml version="1.0" encoding="iso-8859-1"?>
<!-- Uploaded to: SVG Repo, www.svgrepo.com, Generator: SVG Repo Mixer Tools -->
<svg version="1.1" id="Layer_1" xmlns="http://www.w3.org/2000/svg" xmlns:xlink="http://www.w3.org/1999/xlink" 
	 viewBox="0 0 480 480" xml:space="preserve">
<path style="fill:#D9CDC1;" d="M200,183.2l50.4,77.6l-23.2,40h-70.4l-23.2-40l26.4-40l0,0l0,0l24-36.8v46.4c-9.6,3.2-16,12-16,22.4
	c0,13.6,11.2,24,24,24s24-10.4,24-24c0-10.4-6.4-19.2-16-22.4L200,183.2L200,183.2z"/>
<path style="fill:#FFF8EF;" d="M200,188.8v40.8c9.6,3.2,16,12,16,22.4c0,12.8-10.4,24-24,24s-24-11.2-24-24c0-10.4,6.4-19.2,16-22.4
	v-40.8L170.4,220l0,0l0,0L152,260l16,40h48l16-40L200,188.8z"/>
<g>
	<rect x="464" y="452" style="fill:#42210B;" width="16" height="16"/>
	<path style="fill:#42210B;" d="M456,452v16h-24H320h-72h-8h-88h-16H32H0v-16h24V20c0-4.8,3.2-8,8-8h120c4,0,8,3.2,8,8v170.4
		l25.6-38.4c3.2-4.8,10.4-4.8,13.6,0l33.6,51.2V164c0-1.6,0.8-3.2,1.6-4.8l40-56c3.2-4,10.4-4,12.8,0l40,56c0.8,1.6,1.6,3.2,1.6,4.8
		v112.8c10.4-10.4,24-16.8,40-16.8h16c31.2,0,56,24.8,56,56v136H456z M424,452v-96h-96v96H424z M424,340v-24c0-22.4-18.4-40-40-40
		h-16c-22.4,0-40,18.4-40,40v24H424z M312,452V316V179.2l-12,8c-3.2,2.4-7.2,1.6-10.4-0.8l-1.6-3.2V452H312z M308.8,161.6l-28.8-40
		l-28.8,40l12,8l11.2-11.2c3.2-3.2,8-3.2,11.2,0l11.2,11.2L308.8,161.6z M272,452V183.2l-2.4,2.4c-2.4,2.4-7.2,3.2-10.4,0.8l-11.2-8
		v48l18.4,28.8c1.6,2.4,1.6,5.6,0,8L245.6,300h2.4c4,0,8,4,8,8v144H272z M250.4,260L200,183.2v46.4c9.6,3.2,16,12,16,22.4
		c0,13.6-11.2,24-24,24s-24-10.4-24-24c0-10.4,6.4-19.2,16-22.4v-46.4L160,220l0,0l0,0l-26.4,40l23.2,40h70.4L250.4,260z M240,452
		V316h-8h-80h-8v136h8v-72h16v72H240z M200,252c0-4-4-8-8-8s-8,4-8,8s4,8,8,8S200,256,200,252z M144,215.2V28H40v32h32v16H40v40h32
		v16H40v40h32v16H40v40h32v16H40v40h32v16H40v40h32v16H40v40h32v16H40v40h88V308c0-4,4-8,8-8h2.4l-20.8-36c-1.6-2.4-1.6-5.6,0-8
		L144,215.2z"/>
</g>
<rect x="328" y="356" style="fill:#2FB4C2;" width="96" height="96"/>
<path style="fill:#D9CDC1;" d="M424,316v24h-96v-24c0-22.4,18.4-40,40-40h16C406.4,276,424,294.4,424,316z"/>
<path style="fill:#FFF8EF;" d="M384,292h-16c-22.4,0-40,18.4-40,40v8h96v-8C424,310.4,406.4,292,384,292z"/>
<path style="fill:#FF9900;" d="M312,316v136h-24V183.2l2.4,2.4c2.4,2.4,7.2,3.2,10.4,0.8l12-8V316H312z"/>
<path style="fill:#CC9966;" d="M280,121.6l28.8,40l-12,8l-11.2-11.2c-3.2-3.2-8-3.2-11.2,0l-11.2,11.2l-12-8L280,121.6z"/>
<path style="fill:#EE5656;" d="M272,183.2V452h-16V308c0-4-4-8-8-8h-2.4l20.8-36c1.6-2.4,1.6-5.6,0-8L248,227.2v-48l11.2,8
	c3.2,2.4,7.2,1.6,10.4-0.8L272,183.2z"/>
<path style="fill:#FF6600;" d="M240,316v136h-72v-72h-16v72h-8V316h8h80H240z M168,364v-32h-16v32H168z"/>
<rect x="152" y="332" style="fill:#42210B;" width="16" height="32"/>
<path style="fill:#E4C6A1;" d="M144,28v187.2L117.6,256c-1.6,2.4-1.6,5.6,0,8l20.8,36H136c-4,0-8,4-8,8v144H40v-40h32v-16H40v-40h32
	v-16H40v-40h32v-16H40v-40h32v-16H40v-40h32v-16H40v-40h32v-16H40V76h32V60H40V28H144z"/>
<polygon style="fill:#CC9966;" points="40,28 128,52 128,239.2 144,215.2 144,28 "/>
<path style="fill:#FF5400;" d="M144,316l57.6,11.2c13.6,2.4,24,13.6,25.6,27.2L240,452V316H144z"/>
<path style="fill:#1D9AAE;" d="M328,356l66.4,13.6c8.8,1.6,15.2,8,16.8,16.8L424,452v-96H328z"/>
</svg>