<?xml version="1.0" encoding="UTF-8"?>
<svg version="1.1" xmlns="http://www.w3.org/2000/svg" width="512" height="512">
<path d="M0 0 C2.59556812 0.71802632 3.86542217 1.818082 5.83984375 3.640625 C6.53505127 4.27589111 7.23025879 4.91115723 7.9465332 5.56567383 C8.65382568 6.22978271 9.36111816 6.8938916 10.08984375 7.578125 C10.75910889 8.19905029 11.42837402 8.81997559 12.11791992 9.4597168 C14.18096722 11.38477765 16.23046072 13.32339321 18.27734375 15.265625 C23.91026634 20.58935646 29.56449995 25.88647719 35.26953125 31.1328125 C38.14843811 33.78198116 41.01772998 36.44077029 43.875 39.11328125 C44.51920898 39.71567627 45.16341797 40.31807129 45.82714844 40.9387207 C47.11477921 42.14494768 48.40062527 43.35308299 49.68457031 44.56323242 C52.47768278 47.18681014 55.27713364 49.77116992 58.2265625 52.21875 C64.83583326 57.76261762 64.83583326 57.76261762 66.27734375 62.390625 C66.12412404 64.99536007 65.76498155 67.0882168 65.08984375 69.578125 C66.09402344 70.17238281 67.09820312 70.76664062 68.1328125 71.37890625 C77.54627085 77.04273019 86.03669039 83.10771944 94.08984375 90.578125 C94.69715332 91.13628906 95.30446289 91.69445312 95.93017578 92.26953125 C122.64080875 117.0785907 139.50123519 151.9408401 141.08984375 188.578125 C142.42808106 227.47064676 130.10573059 264.36384485 103.44140625 293.08984375 C102.66539062 293.91097656 101.889375 294.73210937 101.08984375 295.578125 C100.29320312 296.45082031 99.4965625 297.32351563 98.67578125 298.22265625 C89.79261457 307.60231412 79.24884826 315.10152631 68.08984375 321.578125 C69.82609133 327.9969797 71.9416512 333.71597336 75.08984375 339.578125 C88.16519034 331.66478899 99.67738701 322.45263646 110.69287109 311.91210938 C111.88415621 310.77453827 113.08914139 309.65134276 114.296875 308.53125 C123.33435694 299.91711243 130.72398123 289.60757964 137.23828125 279.00390625 C139.32079997 276.27554311 140.96863828 274.98785375 144.08984375 273.578125 C145.73984375 273.578125 147.38984375 273.578125 149.08984375 273.578125 C151.39984375 268.298125 153.70984375 263.018125 156.08984375 257.578125 C154.10984375 255.103125 154.10984375 255.103125 152.08984375 252.578125 C151.77734375 250.53515625 151.77734375 250.53515625 152.08984375 248.390625 C152.21359375 247.53210938 152.33734375 246.67359375 152.46484375 245.7890625 C153.41195068 240.92330065 154.47524392 236.0839731 155.62890625 231.26293945 C163.94469468 195.99453263 157.20682799 153.68495855 145.9609375 119.90234375 C145.68536514 119.07279175 145.40979279 118.24323975 145.12586975 117.3885498 C143.75067731 113.27741982 142.3403062 109.18271481 140.87719727 105.10205078 C135.93551906 91.01274851 135.93551906 91.01274851 139.08984375 83.578125 C141.73710988 79.72247618 145.11467035 77.87954223 149.52734375 76.515625 C159.79071136 76.69568408 165.03378041 82.84279182 172.08984375 89.578125 C173.45834252 90.73171512 174.83264909 91.87848079 176.21484375 93.015625 C206.32240422 119.32141613 220.43652436 162.94807705 223.08984375 201.578125 C225.94199489 261.2500871 205.15371365 316.88667028 167.08984375 362.578125 C166.36539062 363.48691406 165.6409375 364.39570313 164.89453125 365.33203125 C158.78901118 372.82516952 152.15495678 379.72726656 145.33984375 386.578125 C144.44048096 387.48667236 143.54111816 388.39521973 142.61450195 389.33129883 C130.35931814 401.52968783 130.35931814 401.52968783 124.08984375 402.328125 C119.69976351 402.02361076 117.62486642 399.81438643 114.796875 396.62890625 C114.23355469 395.95214844 113.67023438 395.27539062 113.08984375 394.578125 C111.96534975 393.30684391 110.84034305 392.03601616 109.71484375 390.765625 C109.13734375 390.09660156 108.55984375 389.42757813 107.96484375 388.73828125 C104.40011579 384.63141758 100.73441467 380.61405924 97.08984375 376.578125 C95.54762061 374.87029401 94.00594662 373.16196696 92.46484375 371.453125 C91.72878906 370.63714844 90.99273437 369.82117188 90.234375 368.98046875 C87.61526522 366.04649332 85.04903619 363.06918562 82.5 360.07421875 C81.14070424 358.46016782 81.14070424 358.46016782 79.08984375 357.578125 C76.78565473 358.55931855 76.78565473 358.55931855 74.19921875 360.0859375 C73.18923828 360.65481689 72.17925781 361.22369629 71.13867188 361.80981445 C70.05005859 362.43460693 68.96144531 363.05939941 67.83984375 363.703125 C66.73060547 364.3324292 65.62136719 364.9617334 64.47851562 365.61010742 C46.80715407 374.3154969 46.80715407 374.3154969 31.08984375 385.578125 C31.73308594 386.10019531 32.37632812 386.62226563 33.0390625 387.16015625 C33.94269531 387.89621094 34.84632813 388.63226563 35.77734375 389.390625 C37.27587891 390.60298828 37.27587891 390.60298828 38.8046875 391.83984375 C41.0910164 393.71561163 43.29298311 395.65739761 45.46875 397.66015625 C46.03053955 398.16635498 46.5923291 398.67255371 47.17114258 399.1940918 C48.26513982 400.18341103 49.34515436 401.18846534 50.40893555 402.21020508 C53.39865477 404.88052808 54.7247044 405.59122072 58.79296875 405.4453125 C60.91024298 404.88839914 63.0128983 404.27044015 65.08984375 403.578125 C74.41661514 402.72387116 81.51466229 403.83479472 88.83984375 409.828125 C94.82450819 417.14271487 97.7321285 422.94385374 97.08984375 432.578125 C95.48904406 440.10730999 92.16454873 446.48645198 85.96875 451.1875 C78.99897297 455.26178673 71.990454 455.67568394 64.08984375 454.578125 C56.17553226 452.32766092 51.23633347 447.56550418 47.08984375 440.578125 C44.26049641 433.68927931 44.51733526 426.74876373 46.08984375 419.578125 C45.16042969 418.85367187 44.23101562 418.12921875 43.2734375 417.3828125 C42.02467307 416.40633505 40.77597893 415.42976771 39.52734375 414.453125 C38.91826172 413.97875 38.30917969 413.504375 37.68164062 413.015625 C37.07255859 412.53867187 36.46347656 412.06171875 35.8359375 411.5703125 C35.28607178 411.14089355 34.73620605 410.71147461 34.16967773 410.26904297 C31.09113058 407.76616498 28.09393459 405.16956726 25.08984375 402.578125 C24.97335634 409.83711352 24.88483134 417.09589648 24.83078289 424.35563469 C24.80482561 427.72766297 24.76968869 431.09904606 24.71264648 434.47070312 C24.65163451 438.35824259 24.62354935 442.2448797 24.6015625 446.1328125 C24.57575607 447.32800507 24.54994965 448.52319763 24.52336121 449.75460815 C24.52107364 456.66250284 25.3874611 461.48506239 28.91560364 467.47268677 C32.4416397 473.79494663 31.82753763 482.18580087 30.6640625 489.11328125 C28.08953731 498.06883819 22.08939345 504.43346088 14.3984375 509.38671875 C6.09369533 513.672584 -3.84301046 513.90432048 -12.89453125 511.92578125 C-21.99226505 508.63420986 -28.64986898 502.18494017 -32.91015625 493.578125 C-36.79021145 484.1551338 -35.686094 474.0706511 -31.98046875 464.8203125 C-30.91015625 462.578125 -30.91015625 462.578125 -28.91015625 459.578125 C-28.61960081 456.97034161 -28.61960081 456.97034161 -28.68310547 454.00512695 C-28.68325653 452.86417068 -28.68340759 451.72321442 -28.68356323 450.54768372 C-28.6938858 449.31636215 -28.70420837 448.08504059 -28.71484375 446.81640625 C-28.71767365 445.55547653 -28.72050354 444.29454681 -28.72341919 442.9954071 C-28.732725 439.64652078 -28.75068922 436.29790709 -28.77282715 432.94909668 C-28.79330239 429.53054153 -28.80242449 426.1119582 -28.8125 422.69335938 C-28.83457445 415.98820581 -28.86806263 409.28318115 -28.91015625 402.578125 C-30.23406372 403.70504761 -30.23406372 403.70504761 -31.5847168 404.85473633 C-32.75955155 405.85243673 -33.93444049 406.85007333 -35.109375 407.84765625 C-35.68909058 408.34140747 -36.26880615 408.83515869 -36.86608887 409.34387207 C-41.09534567 412.9316543 -45.41951671 416.32021004 -49.91015625 419.578125 C-49.74515625 420.2175 -49.58015625 420.856875 -49.41015625 421.515625 C-47.89221595 430.81300933 -49.27197008 437.89829804 -54.47265625 445.765625 C-58.97814076 451.35066325 -64.23314347 454.06368055 -71.31640625 455.0546875 C-79.17816827 455.37941245 -85.55358969 454.40115524 -91.91015625 449.578125 C-97.69641708 443.92699978 -100.43329958 437.0287873 -101.28515625 429.078125 C-100.48919677 421.64916988 -98.01608083 415.11675505 -92.91015625 409.578125 C-85.37437224 403.64569929 -78.24865056 402.89732693 -68.91015625 403.578125 C-66.89599063 404.20068528 -64.89000106 404.85379153 -62.91015625 405.578125 C-57.48586674 405.44347952 -54.38075938 401.85534111 -50.59765625 398.390625 C-49.26866658 397.20377846 -47.93795322 396.01885905 -46.60546875 394.8359375 C-45.9702832 394.27036133 -45.33509766 393.70478516 -44.68066406 393.12207031 C-41.56318926 390.40352223 -38.27353828 387.98054074 -34.91015625 385.578125 C-43.31815828 380.33353836 -51.80325661 375.26163713 -60.41430664 370.35839844 C-62.24096664 369.317693 -64.06490512 368.27232821 -65.88867188 367.2265625 C-71.81737562 363.83701286 -77.75672445 360.54400269 -83.91015625 357.578125 C-88.1387827 361.71299358 -92.17025354 365.94054798 -96.03515625 370.41796875 C-100.35857077 375.39890256 -104.81803715 380.26134881 -109.23828125 385.15625 C-113.39575636 389.76623941 -117.52512952 394.39674008 -121.59765625 399.08203125 C-123.76687151 401.55467841 -123.76687151 401.55467841 -127.34765625 402.140625 C-137.2844377 401.97808702 -146.49688357 389.29555048 -152.97265625 382.765625 C-154.36581055 381.38407227 -154.36581055 381.38407227 -155.78710938 379.97460938 C-161.92423487 373.82025686 -167.5432719 367.41199724 -172.91015625 360.578125 C-173.45921631 359.88307861 -174.00827637 359.18803223 -174.57397461 358.47192383 C-182.03986838 348.91455121 -188.73984701 339.01371616 -194.91015625 328.578125 C-195.31975586 327.89588867 -195.72935547 327.21365234 -196.15136719 326.51074219 C-215.15490388 294.66016195 -226.33399364 258.37693958 -227.34765625 221.265625 C-227.38213867 220.56614746 -227.41662109 219.86666992 -227.45214844 219.14599609 C-227.48443165 215.26916168 -226.99329353 213.68402441 -224.5703125 210.59765625 C-221.91015625 208.578125 -221.91015625 208.578125 -218.91015625 208.578125 C-218.92175781 207.68609375 -218.93335938 206.7940625 -218.9453125 205.875 C-218.95433594 204.70453125 -218.96335937 203.5340625 -218.97265625 202.328125 C-218.98425781 201.16796875 -218.99585938 200.0078125 -219.0078125 198.8125 C-218.92797717 196.16835372 -218.69659403 194.07986409 -217.91015625 191.578125 C-218.71453125 191.289375 -219.51890625 191.000625 -220.34765625 190.703125 C-222.91015625 189.578125 -222.91015625 189.578125 -223.91015625 187.578125 C-224.48536271 180.75549202 -223.53817619 174.52481994 -221.78515625 167.953125 C-221.55997314 167.08848633 -221.33479004 166.22384766 -221.1027832 165.33300781 C-212.25936672 132.3846875 -192.57928424 97.70002078 -163.26953125 78.8828125 C-159.18138195 76.62214716 -156.00128607 76.42224931 -151.41015625 77.078125 C-147.02347233 78.95813239 -144.19923051 81.36100498 -141.91015625 85.578125 C-140.64123766 91.14340591 -141.31749269 95.11686008 -143.2265625 100.37109375 C-143.74647157 101.8893842 -144.26607162 103.40778049 -144.78540039 104.92626953 C-145.19920456 106.10990082 -145.19920456 106.10990082 -145.62136841 107.31744385 C-159.42552005 147.01619464 -168.595229 192.82554758 -158.91015625 234.578125 C-158.74386719 235.31740234 -158.57757813 236.05667969 -158.40625 236.81835938 C-152.38364464 262.80478619 -139.04312271 285.85028679 -120.953125 305.32421875 C-119.53216547 306.89189303 -118.16928124 308.51337406 -116.85546875 310.171875 C-113.92331006 313.79880221 -110.48982367 316.60408107 -106.91015625 319.578125 C-106.37422852 320.02639648 -105.83830078 320.47466797 -105.28613281 320.93652344 C-96.88679915 327.93057508 -88.40051182 334.13677442 -78.91015625 339.578125 C-75.7619637 333.71597336 -73.64640383 327.9969797 -71.91015625 321.578125 C-72.87501953 320.99417969 -72.87501953 320.99417969 -73.859375 320.3984375 C-107.90432185 299.32068153 -131.89024282 268.44996242 -141.47167969 229.28271484 C-149.98014491 191.4495294 -143.00487562 152.56955891 -122.91015625 119.578125 C-109.01333172 98.55636964 -90.91059816 81.84660673 -68.91015625 69.578125 C-69.13703125 68.36125 -69.36390625 67.144375 -69.59765625 65.890625 C-70.12795608 63.04628956 -70.01770552 61.81121088 -68.7890625 59.1484375 C-66.55476251 56.09195228 -63.97731653 53.63988244 -61.16015625 51.140625 C-59.98775538 50.08000809 -58.81590229 49.01878542 -57.64453125 47.95703125 C-57.03287109 47.40547363 -56.42121094 46.85391602 -55.79101562 46.28564453 C-52.63185916 43.41763567 -49.52324285 40.4959391 -46.41015625 37.578125 C-41.23920012 32.74339992 -36.05072859 27.92853964 -30.84179688 23.13476562 C-27.8622172 20.38974081 -24.89574907 17.63156181 -21.94140625 14.859375 C-21.27044922 14.2303125 -20.59949219 13.60125 -19.90820312 12.953125 C-18.61115069 11.73594969 -17.31549369 10.51728503 -16.02148438 9.296875 C-5.78948602 -0.30187264 -5.78948602 -0.30187264 0 0 Z M-56.765625 144.4140625 C-73.28343309 162.39827566 -78.00318364 181.86560875 -77.09667969 205.72314453 C-76.06420277 221.52652808 -67.74613047 237.19579914 -56.91015625 248.578125 C-55.60248659 249.61145837 -54.27611044 250.62316588 -52.91015625 251.578125 C-46.51497845 216.5188467 -47.86960999 177.64585691 -53.91015625 142.578125 C-55.22672572 142.46089906 -55.22672572 142.46089906 -56.765625 144.4140625 Z M50.08984375 142.578125 C49.60584043 146.47337281 49.12857125 150.36941952 48.65234375 154.265625 C48.4502832 155.89081055 48.4502832 155.89081055 48.24414062 157.54882812 C46.38075961 172.86491106 45.85557799 187.97575778 45.83984375 203.390625 C45.83750732 204.43227814 45.8351709 205.47393127 45.83276367 206.54714966 C45.81985916 221.76963267 46.35110191 236.56395096 49.08984375 251.578125 C53.88263468 247.80527691 57.53766401 244.09641284 60.71484375 238.890625 C61.09527832 238.27977051 61.47571289 237.66891602 61.86767578 237.03955078 C65.10191575 231.74853849 67.91156862 226.39540094 70.08984375 220.578125 C70.40824219 219.75183594 70.72664063 218.92554688 71.0546875 218.07421875 C76.79323507 199.90655892 73.75487718 179.23846444 65.90234375 162.328125 C61.99851425 154.90831948 57.16260134 147.29329673 50.08984375 142.578125 Z " fill="#010100" transform="translate(257.91015625,-0.578125)"/>
<path d="M0 0 C3.05941832 1.37351314 5.23633583 2.95691038 7.65234375 5.2734375 C8.3395752 5.92715332 9.02680664 6.58086914 9.73486328 7.25439453 C10.4617334 7.95419434 11.18860352 8.65399414 11.9375 9.375 C13.47477284 10.8390538 15.01253743 12.30259142 16.55078125 13.765625 C17.3082666 14.48814453 18.06575195 15.21066406 18.84619141 15.95507812 C21.74562997 18.70793433 24.67978123 21.42130682 27.625 24.125 C32.47465863 28.58674751 37.30577921 33.06788393 42.125 37.5625 C43.085271 38.45702881 43.085271 38.45702881 44.06494141 39.36962891 C44.9647876 40.20953369 44.9647876 40.20953369 45.8828125 41.06640625 C46.41277832 41.56084229 46.94274414 42.05527832 47.48876953 42.56469727 C47.98747559 43.03834717 48.48618164 43.51199707 49 44 C49.56348145 44.47872559 50.12696289 44.95745117 50.70751953 45.45068359 C52 47 52 47 51.796875 50.72265625 C51.13162878 54.67188144 50.22030324 58.55231038 49.25 62.4375 C43.815002 85.04015019 40.15217532 107.78807286 37.27142334 130.83721924 C37.01585305 132.87367822 36.75351116 134.90928411 36.49072266 136.94482422 C31.42017041 177.17821131 32.6937105 217.66653124 41.41210938 257.28125 C41.92912911 259.67225155 42.40541315 262.06516454 42.859375 264.46875 C46.65908367 283.95875265 53.34621104 303.65798006 61.10668945 321.91210938 C63.10064172 326.69807485 63.10064172 326.69807485 62 330 C60.03588867 331.44775391 60.03588867 331.44775391 57.41796875 332.9765625 C56.43610596 333.55688232 55.45424316 334.13720215 54.44262695 334.73510742 C53.36843506 335.35877197 52.29424316 335.98243652 51.1875 336.625 C49.50001148 337.62056517 47.81254179 338.6161633 46.1259613 339.61326599 C44.94068823 340.31352141 43.75477097 341.01268746 42.56825256 341.71083069 C36.23033888 345.44149149 29.93951443 349.24865415 23.65493774 353.06829834 C21.84357386 354.16862396 20.03067623 355.2663852 18.2175293 356.36376953 C17.10031494 357.04165527 15.98310059 357.71954102 14.83203125 358.41796875 C13.84952393 359.01375732 12.8670166 359.6095459 11.85473633 360.22338867 C8.90889969 361.99982356 8.90889969 361.99982356 5.94799805 364.28637695 C3 366 3 366 0.38500977 365.89379883 C-1.98440275 365.00584518 -4.0059945 364.0246812 -6.16015625 362.69921875 C-6.94334229 362.22291016 -7.72652832 361.74660156 -8.53344727 361.25585938 C-9.36803467 360.73830078 -10.20262207 360.22074219 -11.0625 359.6875 C-12.86441449 358.58696309 -14.66650268 357.48671053 -16.46875 356.38671875 C-17.38785156 355.82259277 -18.30695313 355.2584668 -19.25390625 354.67724609 C-22.68327537 352.58267232 -26.1350989 350.52730623 -29.58862305 348.47290039 C-40.17804098 342.16815763 -50.61350993 335.63285095 -61 329 C-59.34570207 324.01999278 -57.67863065 319.04452335 -55.99859619 314.07315063 C-54.96989586 311.02608042 -53.94547225 307.97757894 -52.92138672 304.92895508 C-52.39569719 303.36687397 -51.86838611 301.80533751 -51.33935547 300.24438477 C-46.37250976 285.58147346 -41.64252728 270.80813082 -38.8125 255.5625 C-38.66103516 254.78197266 -38.50957031 254.00144531 -38.35351562 253.19726562 C-37.89138953 250.80010939 -37.44502188 248.40038474 -37 246 C-36.835 245.13995361 -36.67 244.27990723 -36.5 243.39379883 C-25.49064389 185.0011405 -32.45752265 120.32490955 -47.03271484 63.11523438 C-47.7184397 60.41619209 -48.37036551 57.71261599 -49 55 C-49.1868335 54.24936279 -49.37366699 53.49872559 -49.56616211 52.7253418 C-49.98046875 50.6484375 -49.98046875 50.6484375 -50 47 C-47.97265625 44.05859375 -47.97265625 44.05859375 -45.0625 41.4375 C-44.12535156 40.56996094 -43.18820313 39.70242187 -42.22265625 38.80859375 C-41.1519774 37.8683495 -40.07749444 36.93242597 -39 36 C-33.48768143 31.21911957 -28.10561153 26.33516508 -22.8125 21.3125 C-16.36385466 15.21633693 -9.87618955 9.16635087 -3.34375 3.16015625 C-1.65024111 1.60261185 -1.65024111 1.60261185 0 0 Z " fill="#FEE076" transform="translate(255,18)"/>
<path d="M0 0 C26.32050849 21.53496149 43.84922101 51.4306592 50 85 C50.17660156 85.95076416 50.35320312 86.90152832 50.53515625 87.88110352 C52.10931296 97.420242 52.30754114 106.78320148 52.26074219 116.43188477 C52.25000104 119.06224533 52.26071044 121.69192536 52.2734375 124.32226562 C52.28097849 133.74883295 51.75363661 142.70866597 50 152 C49.835 153.2375 49.67 154.475 49.5 155.75 C44.09247582 190.89890715 25.85006184 224.47205471 4 252 C3.21882813 252.99386719 2.43765625 253.98773438 1.6328125 255.01171875 C-3.48245933 261.39215567 -8.90144427 267.48359086 -14.51464844 273.42675781 C-15.54547137 274.51857618 -16.57186411 275.61458758 -17.59472656 276.71386719 C-19.19508979 278.4272423 -20.81324654 280.12178732 -22.4375 281.8125 C-23.18157104 282.61385376 -23.18157104 282.61385376 -23.94067383 283.43139648 C-25.37109375 284.89453125 -25.37109375 284.89453125 -28 287 C-31.39326019 286.69796441 -32.96385735 285.36612359 -35.20703125 282.90234375 C-35.79009033 282.26965576 -36.37314941 281.63696777 -36.97387695 280.98510742 C-37.88399536 279.97154175 -37.88399536 279.97154175 -38.8125 278.9375 C-39.44051514 278.25083252 -40.06853027 277.56416504 -40.71557617 276.85668945 C-44.30456004 272.92061031 -47.86048482 268.95484071 -51.3359375 264.91796875 C-54.82946042 260.89139656 -58.42591016 256.95500191 -62 253 C-59.19587226 250.01496079 -56.32238572 247.41890555 -53.0625 244.9375 C-37.1736119 232.77464931 -24.08107169 219.33144904 -12.1875 203.25 C-11.73149414 202.63640625 -11.27548828 202.0228125 -10.80566406 201.390625 C-5.33824207 194.16447597 -5.33824207 194.16447597 -2.5625 185.75 C-3.05658747 182.64430735 -3.74621451 182.03259169 -6 180 C-1.84808547 166.02526329 -1.84808547 166.02526329 2 161 C3.92578125 160.453125 3.92578125 160.453125 6 160.3125 C8.12378555 160.12214955 8.12378555 160.12214955 10 159 C18.96838105 142.88458006 18.53405026 120.62282497 18.375 102.75 C18.36802094 101.34184525 18.36802094 101.34184525 18.36090088 99.90524292 C18.27696935 85.41752391 17.6800734 71.26944879 15 57 C14.70996094 55.38593262 14.70996094 55.38593262 14.4140625 53.73925781 C11.2843476 36.67554989 6.59364888 20.56692929 0.73095703 4.26123047 C0 2 0 2 0 0 Z " fill="#FDCF5A" transform="translate(413,95)"/>
<path d="M0 0 C1 2 1 2 0.55029297 3.76147461 C0.28361816 4.46796143 0.01694336 5.17444824 -0.2578125 5.90234375 C-0.55123535 6.69954834 -0.8446582 7.49675293 -1.14697266 8.31811523 C-1.46972168 9.18251221 -1.7924707 10.04690918 -2.125 10.9375 C-12.46686176 39.73889075 -17.1802373 69.52112745 -17.24023438 100.06713867 C-17.24989853 103.03137733 -17.28098038 105.9949088 -17.3125 108.95898438 C-17.41264562 126.89469008 -14.93225626 143.0886426 -9 160 C-8.42958984 161.64548828 -8.42958984 161.64548828 -7.84765625 163.32421875 C5.66290845 200.30768373 31.60014616 229.07062116 63 252 C59.57056114 256.02598891 56.11549213 260.01942978 52.5625 263.9375 C49.85119453 266.9384942 47.15582529 269.94980622 44.5 273 C40.39083717 277.71828579 36.19491508 282.3580078 32 287 C28.19375902 286.43353454 26.44900127 284.82341064 23.76953125 282.1328125 C22.97087646 281.33504395 22.17222168 280.53727539 21.34936523 279.71533203 C20.09361694 278.43311768 20.09361694 278.43311768 18.8125 277.125 C17.95406494 276.25601074 17.09562988 275.38702148 16.21118164 274.49169922 C10.41924841 268.57782474 5.0039755 262.59886809 0 256 C-0.79148438 255.00226563 -1.58296875 254.00453125 -2.3984375 252.9765625 C-18.48406934 232.64295354 -31.18664687 210.40967941 -40 186 C-40.42104004 184.8560376 -40.42104004 184.8560376 -40.85058594 183.68896484 C-45.89776963 169.86419961 -49.68917525 156.05239809 -50.51171875 141.3046875 C-50.54997772 140.63203857 -50.58823669 139.95938965 -50.62765503 139.26635742 C-50.81155782 135.89063229 -50.95510849 132.52142834 -51.05371094 129.14160156 C-51.13347168 127.28100098 -51.13347168 127.28100098 -51.21484375 125.3828125 C-51.24698975 124.27309082 -51.27913574 123.16336914 -51.31225586 122.02001953 C-52.20733917 118.08953301 -53.95613274 116.55660617 -57 114 C-57.66 113.67 -58.32 113.34 -59 113 C-59.02709444 110.91673869 -59.04643873 108.83337559 -59.0625 106.75 C-59.07410156 105.58984375 -59.08570313 104.4296875 -59.09765625 103.234375 C-59.06542969 102.16703125 -59.03320312 101.0996875 -59 100 C-58.97808594 99.26265625 -58.95617188 98.5253125 -58.93359375 97.765625 C-58 96 -58 96 -54.578125 94.68359375 C-50.75243435 93.35223321 -50.75243435 93.35223321 -49.546875 89.84765625 C-49.15242188 87.97400391 -49.15242188 87.97400391 -48.75 86.0625 C-48.59708496 85.39081787 -48.44416992 84.71913574 -48.28662109 84.02709961 C-47.83251269 82.0226033 -47.41427005 80.01304558 -47 78 C-40.16061707 47.56858829 -24.24018493 19.94696416 0 0 Z " fill="#FCCF5A" transform="translate(98,95)"/>
<path d="M0 0 C4.68008851 3.91821363 9.20258278 7.98662455 13.6875 12.125 C14.24590576 12.6396582 14.80431152 13.15431641 15.37963867 13.68457031 C16.44717153 14.67273686 17.50766321 15.66857895 18.56005859 16.67285156 C20.11834344 18.15110039 20.11834344 18.15110039 22.45703125 19.8671875 C24 22 24 22 23.859375 25.78515625 C23.60053329 27.19545338 23.31401202 28.60095265 23 30 C22.73703125 31.19496094 22.4740625 32.38992187 22.203125 33.62109375 C21.73132813 35.51021484 21.73132813 35.51021484 21.25 37.4375 C15.815002 60.04015019 12.15217532 82.78807286 9.27142334 105.83721924 C9.01585305 107.87367822 8.75351116 109.90928411 8.49072266 111.94482422 C3.42017041 152.17821131 4.6937105 192.66653124 13.41210938 232.28125 C13.92912911 234.67225155 14.40541315 237.06516454 14.859375 239.46875 C18.65908367 258.95875265 25.34621104 278.65798006 33.10668945 296.91210938 C35.10064172 301.69807485 35.10064172 301.69807485 34 305 C32.03588867 306.44775391 32.03588867 306.44775391 29.41796875 307.9765625 C28.43610596 308.55688232 27.45424316 309.13720215 26.44262695 309.73510742 C25.36843506 310.35877197 24.29424316 310.98243652 23.1875 311.625 C21.50001148 312.62056517 19.81254179 313.6161633 18.1259613 314.61326599 C16.94068823 315.31352141 15.75477097 316.01268746 14.56825256 316.71083069 C8.23033888 320.44149149 1.93951443 324.24865415 -4.34506226 328.06829834 C-6.15642614 329.16862396 -7.96932377 330.2663852 -9.7824707 331.36376953 C-10.89968506 332.04165527 -12.01689941 332.71954102 -13.16796875 333.41796875 C-14.15047607 334.01375732 -15.1329834 334.6095459 -16.14526367 335.22338867 C-18.20167932 336.50317459 -20.2200703 337.84479248 -22.21142578 339.22363281 C-25 341 -25 341 -27.44921875 341.00390625 C-30.81239929 339.68026552 -33.78848748 337.88945457 -36.8125 335.9375 C-37.40998047 335.56044922 -38.00746094 335.18339844 -38.62304688 334.79492188 C-40.08636577 333.87010434 -41.54379523 332.93597935 -43 332 C-39.68135984 328.35616646 -35.99310554 325.93264336 -31.875 323.3125 C-20.10244217 315.5740546 -11.70322266 307.39618365 -5 295 C-4.44828125 293.989375 -3.8965625 292.97875 -3.328125 291.9375 C3.49567981 276.60310718 1.73373515 257.06125782 -3.36572266 241.48388672 C-6.09583538 233.13267534 -7.93982228 224.66051196 -9.6875 216.0625 C-9.83746429 215.3274826 -9.98742859 214.59246521 -10.14193726 213.83517456 C-12.61669748 201.62062268 -14.63053513 189.39114179 -16 177 C-16.08660385 176.28045135 -16.1732077 175.56090271 -16.26243591 174.81954956 C-17.0439186 167.88476039 -17.16124547 161.01308273 -17.16796875 154.0390625 C-17.17129715 152.81327484 -17.17462555 151.58748718 -17.17805481 150.32455444 C-17.18309656 147.73769503 -17.18546399 145.15082917 -17.18530273 142.56396484 C-17.1874741 138.67143568 -17.20561807 134.77919735 -17.22460938 130.88671875 C-17.25471682 117.45198338 -16.88494789 104.27057237 -15.23300171 90.93347168 C-14.92254478 88.35726878 -14.69161014 85.77682902 -14.47265625 83.19140625 C-12.73766167 63.45558621 -9.60412944 44.18950688 -5.57568359 24.79492188 C-5.06354189 22.30849347 -4.56692496 19.81998556 -4.08203125 17.328125 C-3.94925781 16.64733887 -3.81648438 15.96655273 -3.6796875 15.26513672 C-3.34433539 13.53887605 -3.01000472 11.81241704 -2.67578125 10.0859375 C-1.92724242 6.66775442 -0.99289484 3.35471702 0 0 Z " fill="#FDCF5A" transform="translate(283,43)"/>
<path d="M0 0 C3.86432072 3.86432072 4.02623391 10.34993262 5.125 15.5625 C5.54072266 17.43905273 5.54072266 17.43905273 5.96484375 19.35351562 C8.77246236 32.49953283 8.77246236 32.49953283 8 39 C6.09375 41.53125 6.09375 41.53125 3.5 43.5 C-13.45137471 57.34760188 -24.18114507 77.2634964 -27 99 C-28.98925402 123.44479097 -23.69745726 148.23962888 -7.73242188 167.53173828 C-3.43025267 172.53614634 0.92041033 177.31676282 6.25 181.25 C7.1575 182.1575 8.065 183.065 9 184 C8.70021445 189.9826768 7.19743896 195.61442478 5.625 201.375 C5.40239502 202.20555908 5.17979004 203.03611816 4.95043945 203.8918457 C3.40311095 209.62711956 1.76666616 215.32807181 0 221 C-10.3041777 217.41512215 -19.19463528 208.35403411 -27 201 C-27.67546875 200.38898438 -28.3509375 199.77796875 -29.046875 199.1484375 C-48.56475623 180.80162915 -62.74470426 150.71571532 -64 124 C-64.04769531 123.02853027 -64.09539062 122.05706055 -64.14453125 121.05615234 C-65.01717274 99.82914815 -62.96675697 79.47507673 -54 60 C-53.49855469 58.87851563 -52.99710938 57.75703125 -52.48046875 56.6015625 C-46.32378595 43.53843694 -37.97020441 32.41371884 -28 22 C-26.97519531 20.88044922 -26.97519531 20.88044922 -25.9296875 19.73828125 C-18.42185306 11.80103193 -9.42043023 5.48934844 0 0 Z " fill="#FCB036" transform="translate(193,85)"/>
<path d="M0 0 C19.07204729 9.36353743 34.62022818 25.29405958 46 43 C46.96873047 44.49466797 46.96873047 44.49466797 47.95703125 46.01953125 C64.41102161 72.797594 69.65285692 107.03479361 63.09765625 137.71484375 C54.81722602 171.68279775 34.55333989 200.98084789 4.67578125 219.3828125 C3.79277344 219.91648437 2.90976562 220.45015625 2 221 C0.18138171 218.27207257 -0.56515017 216.51433127 -1.4375 213.4296875 C-1.69273437 212.5325 -1.94796875 211.6353125 -2.2109375 210.7109375 C-2.60152344 209.30714844 -2.60152344 209.30714844 -3 207.875 C-3.26039063 206.96234375 -3.52078125 206.0496875 -3.7890625 205.109375 C-4.54985444 202.41202175 -5.2833649 199.70940114 -6 197 C-6.22042969 196.17145508 -6.44085938 195.34291016 -6.66796875 194.48925781 C-8.59162885 186.70101649 -8.59162885 186.70101649 -7 183 C-5.18424434 181.1087089 -3.43673338 179.480342 -1.4375 177.8125 C14.93376338 163.39919707 26.46706079 142.23280351 28.22119141 120.22485352 C28.97389509 101.5049528 26.86459948 85.72039467 18 69 C17.24783203 67.50919922 17.24783203 67.50919922 16.48046875 65.98828125 C11.95598919 57.56680469 5.3161182 48.33905574 -2.70654297 42.82763672 C-4.37109375 41.68359375 -4.37109375 41.68359375 -7 39 C-8.13145373 31.07982389 -5.80028487 23.28112798 -4.0625 15.5625 C-3.78470703 14.28439453 -3.50691406 13.00628906 -3.22070312 11.68945312 C-1.16021168 2.32042337 -1.16021168 2.32042337 0 0 Z " fill="#FCB036" transform="translate(318,85)"/>
<path d="M0 0 C0.66 0 1.32 0 2 0 C7.56209633 12.08746073 10.54565085 25.36594837 12.75 38.4375 C12.92317749 39.46327148 12.92317749 39.46327148 13.09985352 40.50976562 C17.6304585 69.33526754 16.09349552 99.23752603 7 127 C6.59860418 128.33283566 6.19896329 129.6662007 5.80078125 131 C-4.60722064 164.95321504 -23.77538473 194.4630847 -47 221 C-48.23068642 222.43619911 -49.4601546 223.87344468 -50.6875 225.3125 C-51.450625 226.199375 -52.21375 227.08625 -53 228 C-58.97174825 223.17177801 -63.94441068 217.76639274 -69 212 C-69.70253906 211.23558594 -70.40507812 210.47117187 -71.12890625 209.68359375 C-71.76699219 208.98363281 -72.40507812 208.28367187 -73.0625 207.5625 C-73.63097656 206.94503906 -74.19945312 206.32757813 -74.78515625 205.69140625 C-76 204 -76 204 -76 201 C-73.7265625 199.0546875 -73.7265625 199.0546875 -70.625 196.875 C-65.55879737 193.23075762 -60.88710457 189.348759 -56.296875 185.109375 C-54.24064649 183.22100188 -52.13713592 181.42019417 -50 179.625 C-38.67531725 169.68192855 -19.95881267 150.97052188 -17.4375 135.5625 C-18.06973372 132.68232417 -18.88346652 131.93592262 -21 130 C-16.84808547 116.02526329 -16.84808547 116.02526329 -13 111 C-11.07421875 110.453125 -11.07421875 110.453125 -9 110.3125 C-6.87621445 110.12214955 -6.87621445 110.12214955 -5 109 C3.97171506 92.87858913 3.52364287 70.62790129 3.375 52.75 C3.37234131 51.81820923 3.36968262 50.88641846 3.36694336 49.9263916 C3.32085668 36.1257953 2.51701098 22.77057869 0.28125 9.13476562 C-0.12375742 6.06064679 -0.10041395 3.09609679 0 0 Z " fill="#FCDE75" transform="translate(428,145)"/>
<path d="M0 0 C-0.144375 1.12277344 -0.28875 2.24554688 -0.4375 3.40234375 C-1.45859537 11.58369067 -2.23007274 19.79184848 -3 28 C-3.11601563 29.216875 -3.23203125 30.43375 -3.3515625 31.6875 C-5.31829891 55.96264649 -4.74850028 79.75449917 3 103 C3.20463867 103.61907227 3.40927734 104.23814453 3.62011719 104.87597656 C14.0969278 136.05584192 34.53235259 162.35305377 59.3828125 183.54296875 C64.84189287 188.46141555 67.49886865 193.33947846 68.2734375 200.54296875 C68.58411684 208.63258084 66.62558708 214.74609104 61.33203125 220.95703125 C59.94528352 222.3635426 58.48006123 223.69203891 57 225 C48.06350862 221.03480184 41.88924839 211.45710154 36 204 C35.19433594 202.98808594 34.38867188 201.97617187 33.55859375 200.93359375 C17.51297496 180.58643722 4.80995641 158.40027176 -4 134 C-4.42104004 132.8560376 -4.42104004 132.8560376 -4.85058594 131.68896484 C-9.89776963 117.86419961 -13.68917525 104.05239809 -14.51171875 89.3046875 C-14.54997772 88.63203857 -14.58823669 87.95938965 -14.62765503 87.26635742 C-14.81155782 83.89063229 -14.95510849 80.52142834 -15.05371094 77.14160156 C-15.13347168 75.28100098 -15.13347168 75.28100098 -15.21484375 73.3828125 C-15.24698975 72.27309082 -15.27913574 71.16336914 -15.31225586 70.02001953 C-16.20733917 66.08953301 -17.95613274 64.55660617 -21 62 C-21.66 61.67 -22.32 61.34 -23 61 C-23.02709444 58.91673869 -23.04643873 56.83337559 -23.0625 54.75 C-23.07410156 53.58984375 -23.08570313 52.4296875 -23.09765625 51.234375 C-23.06542969 50.16703125 -23.03320312 49.0996875 -23 48 C-22.97808594 47.26265625 -22.95617188 46.5253125 -22.93359375 45.765625 C-22 44 -22 44 -18.578125 42.68359375 C-14.75243435 41.35223321 -14.75243435 41.35223321 -13.546875 37.84765625 C-13.15242188 35.97400391 -13.15242188 35.97400391 -12.75 34.0625 C-12.59853516 33.39444336 -12.44707031 32.72638672 -12.29101562 32.03808594 C-11.9834264 30.67599779 -11.68775251 29.31116187 -11.40429688 27.94384766 C-5.59231349 0 -5.59231349 0 0 0 Z " fill="#FDDF75" transform="translate(62,147)"/>
<path d="M0 0 C2.9719385 1.12451727 5.33440687 2.22293791 8 4 C13.30680193 4.70757359 15.77134633 3.07538449 20 0 C20.66 0 21.32 0 22 0 C21.99920441 0.84223114 21.99840881 1.68446228 21.99758911 2.55221558 C21.99537282 10.52555859 22.02199952 18.49818759 22.0802784 26.47132683 C22.10923694 30.5695793 22.12740179 34.66726398 22.12011719 38.765625 C22.1134849 42.7277562 22.13622689 46.68876926 22.17855453 50.6506691 C22.18961708 52.15513244 22.19044825 53.65971014 22.18042374 55.16418076 C22.13176879 63.54708675 22.55142138 70.04978846 27.65475464 77.02957153 C29.79300526 80.16154286 29.66595888 82.33722616 29 86 C26.79179864 92.84659259 24.11983292 96.71120393 17.75 100.25 C12.75529458 101.61219239 8.42203247 102.01919127 3.55859375 99.97265625 C-2.31372723 96.48022153 -5.22787428 92.57887196 -7 86 C-7.66595888 82.33722616 -7.79300526 80.16154286 -5.65475464 77.02957153 C-5.11239166 76.28778656 -4.57002869 75.54600159 -4.01123047 74.78173828 C0.21781682 67.86834416 -0.14315366 60.75764273 -0.1953125 52.9296875 C-0.18404214 51.39696174 -0.17015272 49.86425322 -0.15377808 48.33157349 C-0.11796219 44.33002613 -0.11733794 40.32924622 -0.12445068 36.32757568 C-0.12536816 32.23126776 -0.09244061 28.13524053 -0.0625 24.0390625 C-0.00884704 16.02593612 0.00756957 8.01330152 0 0 Z " fill="#F9AE36" transform="translate(245,396)"/>
<path d="M0 0 C2.87810686 1.60801112 5.04653142 3.33157318 7 6 C7.90262542 9.59672115 7.36758678 12.76357173 6.3125 16.3125 C4.4643868 18.68864555 2.74039337 19.75436665 0 21 C-4.62373012 21.57796627 -7.31959072 20.86254055 -11 18 C-13.27603559 15.07366853 -13.60112624 11.71164723 -13.51171875 8.0390625 C-12.66989611 4.68462418 -10.65587224 3.07075802 -7.9296875 1.078125 C-4.92147968 -0.60257411 -3.36302957 -0.84075739 0 0 Z " fill="#F7DA73" transform="translate(332,418)"/>
<path d="M0 0 C2.87890378 1.60845636 5.04004708 3.336041 7 6 C8.07151578 9.92633997 7.36701913 13.155856 5.75 16.875 C3.06783139 20.13191903 1.2376344 20.86833677 -2.9375 21.3125 C-6.45778025 20.95328773 -8.21797817 20.16379476 -11 18 C-13.27603559 15.07366853 -13.60112624 11.71164723 -13.51171875 8.0390625 C-12.66989611 4.68462418 -10.65587224 3.07075802 -7.9296875 1.078125 C-4.92147968 -0.60257411 -3.36302957 -0.84075739 0 0 Z " fill="#F7DA73" transform="translate(186,418)"/>
<path d="M0 0 C1.37245106 2.74490212 0.93580311 4.12060581 0 7 C-2.0625 8.3125 -2.0625 8.3125 -4 9 C-2.94124926 5.59687262 -1.99097846 2.98646769 0 0 Z " fill="#E1C363" transform="translate(63,140)"/>
</svg>
