<?xml version="1.0" encoding="utf-8"?>
<!-- Uploaded to: SVG Repo, www.svgrepo.com, Generator: SVG Repo Mixer Tools -->
<svg width="800px" height="800px" viewBox="-13.55 0 318.215 318.215" xmlns="http://www.w3.org/2000/svg"><defs><style>.a{fill:#ffffff;}.b{fill:#3f88c9;}.c{fill:#f3736f;}.d{fill:#645d5c;}.e{fill:#211715;}</style></defs><path class="a" d="M80.528,260.61c3.695-12.235,7.177-22.92,8.935-25.962,9.78-1.067,25.071-1.956,34.851-1.432a96.765,96.765,0,0,1,21.132,3.506c22.832-4.02,49.185-3.528,59.449-2.112,1.422,4.445,13.045,64.352,14.761,72.91q-1.837-.564-3.877-1.055c.093.609.153,1,.153,1,.352,2.066,1.011,5.647,1.29,7.437-21.734-3.326-56.4-3.326-72.179,1.34-24.444-7.555-61.555-5.777-75.364-1.81.846-2.708,2.253-7.153,2.994-9.375l.093-.277a36.285,36.285,0,0,0-5.5,1.685C67.754,305.2,74.433,280.794,80.528,260.61Z"/><path class="b" d="M218.118,135.795a44.43,44.43,0,0,0-5.037-5.857,19.177,19.177,0,0,0-5.1-2.487c-8.882-3.285-25.574-8.337-34.494-11.632a18.567,18.567,0,0,0-4.524-3.293,33.926,33.926,0,0,1-7.572,5.88c-.17.866-.27,1.389-.27,1.389-2.65,13.9-10.963,50.815-16,62.963l-1.747,4.442c-.587-1.655-1.181-3.421-1.957-5.331-6.533-16.095-16.86-47.741-20.3-61.185l-.524-2.288a40.829,40.829,0,0,1-8.5-6.689l-1.2.977c-.148.12-.3.244-.451.373,7.139-.207-25.619,10.729-36.627,16.617a26.224,26.224,0,0,0-8.255,6.862,45.046,45.046,0,0,0-4.324,6.536c-1.94,3.248-4.406,7.593-6.239,11-9.024,16.774-18.906,44.141-18.735,52.723.191,9.534,14.583,27.506,23.556,30.333.043-2.206,8.312-12.212,11.111-13.555a27.683,27.683,0,0,1,15.333-2.889c-2.729-3.227-12.111-14.111-10.555-19a76.791,76.791,0,0,1,7.148-16.556l2.779-5.26c2.273,11.208,4.65,23.57,5.614,30.562.578,4.187,1.076,8.173,1.5,11.28,19.974,0,83.2-.042,101.845-.042h1.3c.425-3.1.922-7.068,1.5-11.238.84-6.093,2.716-15.728,4.723-25.389l2.038,1.754c3.449,3.144,8.563,11.287,10.725,16.036a2.272,2.272,0,0,1-.222,2.305c-4.091,5.475-11.578,11.144-16.037,14.767,6.889,5.623,21.979,13.225,26.868,18.559,4.666-3.334,23.162-15.208,25.111-21.334,3.4-10.68-1.014-20.18-5.642-30.387-7.3-16.091-23.95-47.057-26.839-50.946"/><path class="a" d="M147.27,176.742c-.761,2.366-1.485,4.408-2.152,6.016,0,0-.943,2.06-1.871,4.093-.548-1.554-1.112-3.206-1.833-4.982-6.533-16.095-16.86-47.741-20.3-61.185,0,0-.244-.99-.572-2.314a28.343,28.343,0,0,0,9.254,3.489c1.617,1.63,7.315,3.8,9.958,5,.3.13.63.29.72.6l3.68.031c.1-.3.42-.46.71-.6,3.154-1.43,11.546-5.241,12.509-6.8a19.631,19.631,0,0,0,3.758-1.547l-.017,1.254C158.819,131.853,152.257,161.24,147.27,176.742Z"/><path class="a" d="M125.616,136.248c-1.909-6.178-3.5-11.645-4.5-15.564l-.534-2.293A44.263,44.263,0,0,1,100.547,91.4c-.314.08-.482.121-.482.121-2.571.643-4.6-.651-6.03-1.794A16.39,16.39,0,0,1,89.8,84.166,25.785,25.785,0,0,1,87.168,70.5a8.587,8.587,0,0,1,.9-3.461A6.176,6.176,0,0,1,93.2,64.061a6.415,6.415,0,0,1,4.4,1.574l4.769,3.1c1.238-1.439,2.1-3.666,3.856-4.531a8.181,8.181,0,0,1,4.026-.364c11.269.55,21.173-6.765,29.965-13.7-.362,1.76,1.144,3.49,2.9,3.992a9.134,9.134,0,0,0,5.373-.522c4.25-1.45,7.668-4.371,10.789-7.558l6.877,1.857c6.517,2.577,14.266,9.322,15.329,21.521l2.621-2.368a6.448,6.448,0,0,1,5.158-1.509,6.152,6.152,0,0,1,.674.14,6.015,6.015,0,0,1,3.7,2.77,8.62,8.62,0,0,1,.9,3.461,25.791,25.791,0,0,1-2.63,13.67,16.384,16.384,0,0,1-4.238,5.562c-1.5,1.2-4.21,1.11-6.092,1.444-.364,1.276-.738,2.331-.935,2.929-1.432,3.887-9.291,17.435-19.268,22.888-.76,4.129-2.2,11.1-3.988,19.055Z"/><path class="c" d="M139.511,177.027c-1.575-4.12-3.287-8.844-5.021-13.81,1.259-10.528,3.408-23.841,3.408-24.222a8.112,8.112,0,0,0-.31-1.89c-.08-.29-.14-.57-.21-.86-.152-.66-.452-1.993-.74-3.3.252-.308.5-.608.74-.9,1.29-1.58,2.37-2.93,2.79-3.54.07-.11.12-.19.15-.25a2.552,2.552,0,0,0,.13-.309c1.187-.007,2.475-.011,3.727-.012a2.338,2.338,0,0,0,.143.352,3.515,3.515,0,0,0,.2.31c.43.62,1.48,1.93,2.72,3.45.481.589.991,1.211,1.508,1.837-.2.852-.384,1.619-.5,1.956a11.241,11.241,0,0,0-.73,3.36c-.02.527,2.276,13.854,3.734,23.655a179.961,179.961,0,0,1-6.134,19.9l-1.683,4.623c-.608-1.707-1.217-3.533-2.021-5.512C140.81,180.379,140.173,178.757,139.511,177.027Z"/><path class="a" d="M155.311,121.7a7.107,7.107,0,0,0,2.066-1.609,20.069,20.069,0,0,0,4.008-1.684c-.165.851-.267,1.387-.267,1.387-.607,3.183-1.511,7.574-2.6,12.6a37.813,37.813,0,0,1-5.476,6.7c-1.33-1.64-3.82-4.61-5.8-7.04-1.24-1.52-2.29-2.83-2.72-3.45a3.515,3.515,0,0,1-.2-.31,1.146,1.146,0,0,1-.16-.8c.1-.3.42-.46.71-.6C147.194,125.837,152.368,123.488,155.311,121.7Z"/><path class="a" d="M135.556,125.042c-2.364-1.04-4.8-2.21-5.76-3.184a28.335,28.335,0,0,1-9.249-3.487c.535,2.316,1.405,5.541,2.511,9.355,2.734,4.512,4.778,7.753,8.47,11.425,1.17-1.45,3.23-3.91,5.06-6.14.27-.33.53-.65.79-.96,1.29-1.58,2.37-2.93,2.79-3.54.07-.11.12-.19.15-.25a1.146,1.146,0,0,0,.16-.8c-.09-.31-.42-.47-.72-.6C138.7,126.378,137.141,125.739,135.556,125.042Z"/><path class="d" d="M184.054,24.585a37.325,37.325,0,0,0-6.306-8.433c-10.342-10.1-18.848-14.135-38.2-14.135C123.6,2.017,110.526,9,104.228,15.1c-11.011,10.668-15.7,27.917-12.74,42.749l1.71,6.21a6.4,6.4,0,0,1,4.4,1.572l4.769,3.1c1.238-1.439,2.1-3.666,3.856-4.531a8.181,8.181,0,0,1,4.026-.364c11.269.55,21.173-6.765,29.965-13.7-.362,1.76,1.144,3.49,2.9,3.992a9.134,9.134,0,0,0,5.373-.522c4.25-1.45,7.668-4.371,10.789-7.558l6.877,1.857c6.517,2.577,14.266,9.322,15.329,21.521l2.621-2.368a6.448,6.448,0,0,1,5.158-1.509,6.152,6.152,0,0,1,.674.14,53.058,53.058,0,0,0,1.64-15.158A64.016,64.016,0,0,0,184.054,24.585Z"/><path class="e" d="M248.525,223.636c13.555,0,27.11-.046,40.665-.047,2.573,0,2.578-4,0-4-13.555,0-27.11.046-40.665.047-2.573,0-2.578,4,0,4Z"/><path class="e" d="M1.932,223.636c13.457,0,26.914-.046,40.371-.047,2.574,0,2.578-4,0-4-13.457,0-26.914.046-40.371.047-2.574,0-2.578,4,0,4Z"/><path class="e" d="M98.672,223.71q17.538,0,35.075-.014,21.669-.012,43.339-.022,8.755,0,17.513-.006c2.573,0,2.578-4,0-4q-17.856,0-35.71.014-21.582.012-43.162.022-8.528,0-17.055.006c-2.574,0-2.578,4,0,4Z"/><path class="e" d="M59.512,142.062a229.058,229.058,0,0,0-21.358,47.09c-1.055,3.277-2.033,6.586-2.8,9.943a33.665,33.665,0,0,0-1.09,7.475,21.208,21.208,0,0,0,2.3,8.611,50.214,50.214,0,0,0,5.549,9.123,60.39,60.39,0,0,0,8.343,9.207,25.992,25.992,0,0,0,8.83,5.546,2.024,2.024,0,0,0,2.532-1.929c-.047.728-.066.184.034.016.052-.087.222-.5.015-.056a12.148,12.148,0,0,1,.624-1.15c.551-.917,1.171-1.792,1.809-2.65a53.937,53.937,0,0,1,4.86-5.654c.4-.4.806-.8,1.227-1.182.159-.144.322-.284.484-.426.057-.05.477-.383.192-.167a14.019,14.019,0,0,1,3.869-1.8,24.792,24.792,0,0,1,11.33-1.38c1.9.239,2.394-2.257,1.415-3.414-3.481-4.113-7.3-8.45-9.4-13.467a8.778,8.778,0,0,1-.739-2.83c0-.1.095-.841.01-.411a10.78,10.78,0,0,1,.37-1.216q.547-1.684,1.145-3.353a70.83,70.83,0,0,1,5.522-11.855c1.3-2.226-2.152-4.241-3.454-2.019a73.869,73.869,0,0,0-4.865,10.012c-.7,1.744-1.33,3.513-1.923,5.295a10.453,10.453,0,0,0-.8,3.748,15.658,15.658,0,0,0,2.286,6.668,53.8,53.8,0,0,0,4.5,6.694c1.453,1.9,2.974,3.738,4.518,5.562l1.414-3.414a27.666,27.666,0,0,0-12.829,1.679,17.554,17.554,0,0,0-4.389,2.042,22.56,22.56,0,0,0-2.712,2.4,60.643,60.643,0,0,0-5.648,6.683c-1.188,1.614-2.733,3.556-2.866,5.639l2.532-1.928a14.406,14.406,0,0,1-3.13-1.54,28.815,28.815,0,0,1-3.483-2.586,55.9,55.9,0,0,1-7.267-7.621,52.673,52.673,0,0,1-5.68-8.705,21.435,21.435,0,0,1-2.5-7.43,20.448,20.448,0,0,1,.725-6.28c.67-3.115,1.545-6.186,2.491-9.227a224.989,224.989,0,0,1,8.425-22.535,220.079,220.079,0,0,1,13.035-25.2c1.321-2.217-2.136-4.231-3.454-2.019Z"/><path class="e" d="M202.74,188.209a38.019,38.019,0,0,1,5.736,7.325q1.493,2.3,2.829,4.7c.374.673.738,1.351,1.086,2.037.2.393.737,1.127.7,1.579-.032.409-.952,1.268-1.246,1.609-.6.692-1.219,1.362-1.856,2.017-1.425,1.465-2.932,2.85-4.473,4.193-2.7,2.357-5.527,4.566-8.311,6.824a2,2,0,0,0,0,2.828c4.445,3.6,9.435,6.492,14.28,9.509,4.3,2.68,9.1,5.3,12.587,9.05a2.014,2.014,0,0,0,2.424.313c5.913-4.212,11.995-8.161,17.6-12.8a34.9,34.9,0,0,0,7.415-7.612,15.075,15.075,0,0,0,1.886-5.739,29.9,29.9,0,0,0,.012-9.385c-.921-6.105-3.51-11.819-6.034-17.4q-2.538-5.613-5.268-11.136c-4.028-8.173-8.235-16.258-12.549-24.283-2-3.714-4.016-7.417-6.1-11.083a60.163,60.163,0,0,0-3.613-5.969,2.06,2.06,0,0,0-2.736-.718,2.014,2.014,0,0,0-.718,2.736,51.246,51.246,0,0,1,2.97,4.846c1.706,2.965,3.357,5.963,4.992,8.969q6.243,11.478,12.124,23.152c1.85,3.678,3.672,7.371,5.421,11.1a126.581,126.581,0,0,1,6.094,14.435,34.154,34.154,0,0,1,1.761,8.481,27.52,27.52,0,0,1-1.083,8.813c-.134.512.11-.1-.164.391-.13.234-.256.468-.4.695a9.674,9.674,0,0,1-1.135,1.507,39.366,39.366,0,0,1-3.7,3.657c-5.847,5.186-12.45,9.366-18.8,13.888l2.424.312c-3.555-3.816-8.4-6.553-12.781-9.29-4.743-2.962-9.73-5.741-14.087-9.268v2.828c3.1-2.517,6.256-4.975,9.237-7.64a63.859,63.859,0,0,0,4.634-4.527c1.335-1.463,3.173-3.185,3.187-5.3.012-1.75-1.191-3.541-2-5.035-.922-1.7-1.913-3.357-2.956-4.981a43.153,43.153,0,0,0-6.565-8.449c-1.884-1.75-4.719,1.072-2.828,2.828Z"/><path class="e" d="M205.427,232.681a146.6,146.6,0,0,0-18.57-1.092,255.5,255.5,0,0,0-26.128,1.1c-5.3.5-10.575,1.184-15.815,2.1h1.063c-14.123-4.023-28.622-4.108-43.162-3.243q-5,.3-9.981.757c-1.3.121-3.532-.041-4.582.769a3.721,3.721,0,0,0-.966,1.427,69.073,69.073,0,0,0-2.836,7.236c-2.707,7.751-5.058,15.629-7.394,23.5-2.532,8.527-4.983,17.078-7.41,25.635-1.386,4.885-2.8,9.762-4.176,14.651-.038.137-.083.274-.133.407a2.01,2.01,0,0,0,2.46,2.46,49.779,49.779,0,0,1,11.3-2.782,140.524,140.524,0,0,1,15.154-1.35,200.808,200.808,0,0,1,33.174,1.182,79.946,79.946,0,0,1,12.789,2.479c.813.239,1.619.5,2.412.8a17.948,17.948,0,0,1,1.78.771,2.523,2.523,0,0,0,2.376-.109l.452-.211c.1-.048.21-.094.315-.139-.184.079-.151.063.015,0q1.182-.464,2.4-.827a71.454,71.454,0,0,1,13.4-2.409,172.774,172.774,0,0,1,17.562-.813c11.569.013,23.408.725,34.676,3.5q1.773.438,3.519.967a2.022,2.022,0,0,0,2.46-2.46c-1.807-9.018-3.548-18.049-5.328-27.073-2.371-12.019-4.735-24.041-7.236-36.034-.678-3.249-1.2-6.631-2.2-9.8-.771-2.446-4.634-1.4-3.857,1.063.84,2.662,1.29,5.489,1.864,8.214,1.116,5.3,2.188,10.613,3.256,15.925q3.7,18.417,7.294,36.856c.78,3.972,1.552,7.946,2.347,11.915l2.46-2.46c-10.155-3.09-21.036-4.052-31.6-4.461a162.89,162.89,0,0,0-32.162,1.558,40.755,40.755,0,0,0-11.949,3.38H146.5a43.712,43.712,0,0,0-11.866-3.546,147.294,147.294,0,0,0-16.872-1.985,192.319,192.319,0,0,0-36.147.725c-5,.617-10.179,1.359-14.878,3.271l2.46,2.46c.874-2.311,1.406-4.8,2.078-7.177q2.215-7.825,4.444-15.649c3.54-12.37,7.087-24.753,11.108-36.976.821-2.5,1.662-4.985,2.587-7.444.173-.459.348-.917.529-1.372q.124-.31.251-.62c.039-.1.08-.195.121-.293.08-.194-.2.448-.013.034a20.222,20.222,0,0,1,.891-1.839l-1.727.991c7.408-.8,14.859-1.284,22.306-1.5a117.273,117.273,0,0,1,23.584,1.313q3.352.585,6.657,1.406a22.12,22.12,0,0,0,3.17.815,14.42,14.42,0,0,0,3.38-.469c4.183-.668,8.391-1.173,12.609-1.564,7.975-.739,15.989-1.083,24-1.072,3.732.005,7.466.088,11.193.286,1.54.082,3.079.183,4.615.316q.963.084,1.925.185c.294.032.587.064.88.1.157.019.893.113.583.071a2.068,2.068,0,0,0,2.46-1.4A2.013,2.013,0,0,0,205.427,232.681Z"/><path class="e" d="M143.736,244.684c-.422,15.555-.139,31.149-.094,46.708.007,2.282.019,4.565.019,6.847,0,2.574,4,2.579,4,0,0-14.552-.1-29.1-.034-43.656.015-3.3.02-6.6.109-9.9.07-2.575-3.93-2.573-4,0Z"/><path class="e" d="M206.522,155.263c-3.812,17.35-7.964,34.7-10.707,52.264-.938,6-1.436,12.073-2.526,18.047-.46,2.517,3.394,3.6,3.857,1.063,1.013-5.548,1.509-11.189,2.331-16.768.617-4.188,1.4-8.353,2.2-12.51,1.893-9.817,4-19.594,6.133-29.36q1.278-5.838,2.572-11.672c.551-2.509-3.3-3.581-3.857-1.064Z"/><path class="e" d="M78.818,157.216c1.658,7.334,3.165,14.7,4.665,22.073,1.939,9.528,3.879,19.073,5.394,28.68.979,6.2,1.493,12.489,2.621,18.668.462,2.529,4.317,1.458,3.857-1.063-1.047-5.733-1.548-11.563-2.414-17.325-.655-4.362-1.449-8.7-2.262-13.04-1.835-9.779-3.83-19.53-5.888-29.265-.69-3.267-1.38-6.535-2.116-9.792-.567-2.51-4.424-1.447-3.857,1.064Z"/><path class="e" d="M192.083,65.364A53.153,53.153,0,0,0,193,45.288a65.394,65.394,0,0,0-5.766-18.934,44.974,44.974,0,0,0-10.641-14.033,46.132,46.132,0,0,0-12.1-8.151A49.826,49.826,0,0,0,149.17.436a71.913,71.913,0,0,0-20.591.653C117.14,3.3,105.95,8.93,98.757,18.275a50.753,50.753,0,0,0-9.2,40.109c.493,2.524,4.349,1.456,3.857-1.063a46.967,46.967,0,0,1,6.416-33.645c5.8-9.131,15.111-14.831,25.4-17.693A61.6,61.6,0,0,1,144.6,4.12,54.784,54.784,0,0,1,160,6.681a37.165,37.165,0,0,1,11.218,6.3A43.951,43.951,0,0,1,181.569,24.3a58.2,58.2,0,0,1,7.1,19.279,49.248,49.248,0,0,1-.444,20.725c-.588,2.5,3.268,3.573,3.857,1.064Z"/><path class="e" d="M58.386,204.226c-.676.3-.217.09-.038.032.139-.044.28-.082.422-.115.17-.039.342-.07.514-.1.152-.026.429-.02-.182.022.087-.006.173-.02.26-.029a15.238,15.238,0,0,1,2.311-.042c.386.02.771.058,1.156.1.356.037-.387-.061-.137-.019.092.015.184.027.276.042q.27.043.537.1c.345.071.689.154,1.025.259.144.045.285.1.427.148.316.115-.155-.083-.208-.089a.806.806,0,0,1,.211.1,2,2,0,1,0,2.018-3.454,13.208,13.208,0,0,0-5.3-1.185,11.43,11.43,0,0,0-5.306.778,2.007,2.007,0,0,0-.718,2.736,2.06,2.06,0,0,0,2.737.718Z"/><path class="e" d="M216.386,205.633a8.256,8.256,0,0,1,.794-.472q.208-.11.422-.208c.081-.038.164-.073.245-.111.225-.105-.41.165-.175.073a19.2,19.2,0,0,1,2.056-.684c.667-.179,1.342-.312,2.024-.424.278-.046-.177.019-.221.028.08-.017.169-.021.252-.03.146-.016.292-.03.438-.041.292-.021.585-.031.878-.025a2.019,2.019,0,0,0,2-2,2.04,2.04,0,0,0-2-2,16.175,16.175,0,0,0-4.435.634,14.333,14.333,0,0,0-4.3,1.806,2,2,0,1,0,2.019,3.454Z"/><path class="e" d="M214,307.993c.426,2.48.9,4.953,1.29,7.438l2.461-2.46a229.433,229.433,0,0,0-30.013-2.367A217.635,217.635,0,0,0,157.8,311.83a81.685,81.685,0,0,0-13.285,2.481h1.064c-10.59-3.248-21.776-4.559-32.808-5.078a187.662,187.662,0,0,0-31.021.977,81.262,81.262,0,0,0-12.6,2.29l2.461,2.461c.978-3.131,1.959-6.262,2.993-9.375.814-2.449-3.048-3.5-3.857-1.063-1.034,3.112-2.015,6.243-2.993,9.374a2.016,2.016,0,0,0,2.46,2.46c7.455-2.121,15.4-2.718,23.109-3.1a190.988,190.988,0,0,1,31.577.953,118.69,118.69,0,0,1,15.316,2.754q1.673.423,3.327.91a4.013,4.013,0,0,0,2.035.293c.468-.1.934-.267,1.4-.389,1.832-.479,3.691-.859,5.557-1.182a173.663,173.663,0,0,1,29.433-2.046,229.824,229.824,0,0,1,34.727,2.277,2.036,2.036,0,0,0,2.46-2.46c-.392-2.486-.864-4.958-1.289-7.438a2.017,2.017,0,0,0-2.461-1.4,2.046,2.046,0,0,0-1.4,2.46Z"/><path class="e" d="M185.522,68.47c1.939-1.63,5.345-1.211,6.485,1.176a10.547,10.547,0,0,1,.629,4.463,22.965,22.965,0,0,1-.479,4.7A22.222,22.222,0,0,1,188.5,87.4a6.639,6.639,0,0,1-2.866,2.561,25.114,25.114,0,0,1-4.331.659,2.013,2.013,0,0,0-1.4,2.461,2.052,2.052,0,0,0,2.46,1.4c1.856-.263,3.735-.291,5.463-1.1a12.156,12.156,0,0,0,4.363-4.3,26.833,26.833,0,0,0,4.251-11.91c.447-3.775.547-8.711-2.49-11.5a8.5,8.5,0,0,0-11.262-.033c-1.973,1.659.869,4.476,2.828,2.828Z"/><path class="e" d="M180.556,87.037a21.993,21.993,0,0,1-1.039,5.5c-.2.661-.416,1.317-.635,1.972-.067.2-.134.395-.2.592s-.215.514-.046.127a43.012,43.012,0,0,1-2.851,5.294A53.126,53.126,0,0,1,164.372,114a21.379,21.379,0,0,1-8.547,4.429c-2.506.581-1.445,4.439,1.064,3.857,6.476-1.5,11.853-6.232,16.079-11.152a57.769,57.769,0,0,0,9-13.612,28.664,28.664,0,0,0,2.59-10.481c.092-2.574-3.908-2.57-4,0Z"/><path class="e" d="M99.017,64.221a8.5,8.5,0,0,0-11.263.032c-3.2,2.941-2.939,8.266-2.4,12.2a25.893,25.893,0,0,0,4.8,12.083c2.5,3.275,6.159,5.822,10.441,4.916,2.517-.532,1.452-4.389-1.064-3.857-2.56.541-4.935-1.716-6.326-3.613a22.427,22.427,0,0,1-3.7-8.811,22.966,22.966,0,0,1-.434-4.7,10.191,10.191,0,0,1,.627-4.244c1.141-2.388,4.546-2.806,6.485-1.176,1.958,1.647,4.8-1.169,2.829-2.828Z"/><path class="e" d="M96.755,81.782a61.257,61.257,0,0,0,5.013,18.775,45.738,45.738,0,0,0,16.377,18.686,30.636,30.636,0,0,0,12,4.685,2.064,2.064,0,0,0,2.46-1.4,2.015,2.015,0,0,0-1.4-2.46c-7.271-1.087-13.442-5.275-18.424-10.521a43.193,43.193,0,0,1-10.45-19.2,67.993,67.993,0,0,1-1.582-8.563,2.063,2.063,0,0,0-2-2,2.012,2.012,0,0,0-2,2Z"/><path class="e" d="M165.626,49.832a22.945,22.945,0,0,1,8.981,6.828,24.6,24.6,0,0,1,4.953,13.8c.154,2.557,4.156,2.575,4,0a29.018,29.018,0,0,0-5.951-16.411,26.243,26.243,0,0,0-10.92-8.076,2.013,2.013,0,0,0-2.46,1.4,2.049,2.049,0,0,0,1.4,2.46Z"/><path class="e" d="M119.19,121.216c3.437,13.4,7.878,26.6,12.382,39.674,2.313,6.717,4.693,13.418,7.316,20.021.751,1.892,1.486,3.784,2.161,5.7a34.9,34.9,0,0,1,1.595,4.624,24.07,24.07,0,0,1,.391,2.949c.139,1.465.238,2.933.322,4.4.409,7.2.5,14.434.5,21.649,0,2.574,4,2.579,4,0,0-6.393-.091-12.792-.378-19.18-.132-2.935-.284-5.88-.661-8.8-.432-3.346-1.767-6.468-2.961-9.611-5.3-13.936-10.311-27.927-14.815-42.145-2.135-6.74-4.241-13.505-6-20.355-.639-2.492-4.5-1.435-3.857,1.064Z"/><path class="e" d="M159.19,119.263c-1.533,8.022-3.314,16-5.161,23.956-2.174,9.363-4.454,18.716-7.147,27.946a109.491,109.491,0,0,1-3.692,11.061,2.011,2.011,0,0,0,1.4,2.46,2.051,2.051,0,0,0,2.461-1.4c3-7.288,4.9-15.092,6.864-22.706,2.417-9.385,4.616-18.827,6.67-28.3.862-3.978,1.7-7.962,2.466-11.96.48-2.516-3.374-3.593-3.857-1.064Z"/><path class="e" d="M169.738,115.3a33.048,33.048,0,0,1,7.353,7.679c1.671,2.29,3.563,5,4.321,7.57l.919-2.259c-4.507,2.653-8.987,5.441-13.63,7.852a2.012,2.012,0,0,0-.405,3.141,88.826,88.826,0,0,1,7.556,7.26v-2.829a31.57,31.57,0,0,0-2.54,4.279c-1.554,2.838-3.086,5.688-4.629,8.532-3.936,7.257-7.892,14.508-12.086,21.62-1.953,3.31-3.939,6.618-6.169,9.752a2.016,2.016,0,0,0,.718,2.736,2.043,2.043,0,0,0,2.736-.717,204.774,204.774,0,0,0,11.45-18.98c3.677-6.577,7.235-13.219,10.84-19.837.6-1.109,1.209-2.219,1.831-3.319.191-.338.382-.677.582-1.009.135-.224.675-.974.095-.228a2.061,2.061,0,0,0,0-2.829,88.809,88.809,0,0,0-7.555-7.259l-.405,3.141c4.642-2.411,9.123-5.2,13.63-7.852a2.036,2.036,0,0,0,.919-2.258,29.631,29.631,0,0,0-4.939-8.819,38.474,38.474,0,0,0-8.573-8.821c-2.111-1.483-4.112,1.983-2.019,3.454Z"/><path class="e" d="M109.482,111.27a55.828,55.828,0,0,0-7.955,8.229c-2.042,2.528-4.353,5.333-5.3,8.5a2.059,2.059,0,0,0,.919,2.259c4.417,3.2,9.135,6.248,13.373,9.576V137.01c-1.4,1.378-2.92,2.62-4.426,3.875a23.968,23.968,0,0,0-3.426,3.125,2.084,2.084,0,0,0,0,2.829c-.307-.387-.2-.264.061.087q.345.462.687.926.988,1.34,1.97,2.683,3.1,4.227,6.2,8.452c5.126,6.973,10.267,13.938,15.536,20.8,2.267,2.955,4.534,5.92,6.955,8.752,1.676,1.959,4.494-.882,2.829-2.829-4.73-5.532-9.021-11.436-13.373-17.268q-7.179-9.62-14.245-19.321c-1.253-1.71-2.471-3.454-3.79-5.115v2.829a23.963,23.963,0,0,1,3.426-3.125c1.507-1.255,3.028-2.5,4.426-3.875a2.011,2.011,0,0,0,0-2.829c-4.577-3.593-9.472-6.787-14.182-10.2l.919,2.258c.7-2.359,2.969-5.168,4.721-7.29a55.307,55.307,0,0,1,7.5-7.679c1.994-1.631-.851-4.446-2.828-2.828Z"/><path class="e" d="M106.627,113.772c-6.2,2.742-12.579,5.075-18.865,7.6-3.375,1.358-6.743,2.737-10.065,4.221a42.468,42.468,0,0,0-8.7,4.809c-4.059,3.115-6.97,7.256-9.488,11.657-1.28,2.238,2.175,4.255,3.454,2.019A35.512,35.512,0,0,1,70.9,133.97a36.416,36.416,0,0,1,8.41-4.736c6.462-2.913,13.1-5.426,19.689-8.038,3.233-1.282,6.469-2.563,9.65-3.97a2.015,2.015,0,0,0,.718-2.737,2.05,2.05,0,0,0-2.737-.717Z"/><path class="e" d="M172.883,117.724c6,2.212,12.108,4.141,18.189,6.123,3.268,1.066,6.536,2.131,9.793,3.229a92.165,92.165,0,0,1,8.756,3.161c2.975,1.353,4.847,4.022,6.77,6.567a2.064,2.064,0,0,0,2.737.718,2.014,2.014,0,0,0,.717-2.736c-1.714-2.27-3.452-4.861-5.755-6.575-2.807-2.089-6.509-3.054-9.788-4.183-6.714-2.314-13.488-4.449-20.231-6.677-3.389-1.12-6.776-2.25-10.125-3.485-2.419-.891-3.462,2.973-1.063,3.858Z"/><path class="e" d="M138.334,140.91c2.965,0,5.93-.065,8.9-.067a2,2,0,0,0,0-4c-2.965,0-5.93.066-8.9.067a2,2,0,0,0,0,4Z"/><path class="e" d="M134.773,133.466c.317,1.625.77,3.244,1.048,4.873.047.273.036.544.061.81-.051-.541.036-.263-.019.111-.255,1.759-.529,3.514-.792,5.271-.887,5.919-1.74,11.843-2.471,17.782a2.01,2.01,0,0,0,2,2,2.05,2.05,0,0,0,2-2c.725-5.895,1.584-11.773,2.468-17.647.238-1.582.488-3.162.71-4.747.348-2.481-.674-5.089-1.148-7.517-.493-2.524-4.349-1.455-3.857,1.064Z"/><path class="e" d="M153.121,161.93c-.854-5.69-1.785-11.368-2.711-17.047q-.433-2.664-.852-5.329c-.016-.1-.029-.207-.045-.311-.038-.249-.007.541.023.167.016-.208-.02-.422,0-.634a35.545,35.545,0,0,1,1.12-4.227c.581-2.5-3.275-3.574-3.857-1.063-.527,2.268-1.487,4.4-1.153,6.765.24,1.7.53,3.392.806,5.086.957,5.882,1.926,11.763,2.81,17.656a2.013,2.013,0,0,0,2.46,1.4,2.051,2.051,0,0,0,1.4-2.46Z"/><path class="e" d="M144.516,125.94q-2.175,0-4.351.011a2.065,2.065,0,0,0-1.414.585,2,2,0,0,0,0,2.829,2.074,2.074,0,0,0,1.414.586q2.175-.009,4.351-.011a2.06,2.06,0,0,0,1.414-.586,2,2,0,0,0,0-2.829,2.077,2.077,0,0,0-1.414-.585Z"/><path class="e" d="M155.348,119.293a44.776,44.776,0,0,1-6.176,3.395q-1.725.838-3.469,1.636a8.8,8.8,0,0,0-2.847,1.553c-1.252,1.339-.618,3.019.336,4.28.966,1.277,1.983,2.517,3,3.756,1.8,2.2,3.639,4.382,5.435,6.593a2.019,2.019,0,0,0,2.828,0,44.482,44.482,0,0,0,5.245-6.294,2,2,0,1,0-3.454-2.019,38.889,38.889,0,0,1-4.619,5.484h2.828c-1.482-1.824-2.993-3.624-4.487-5.438-.85-1.033-1.7-2.068-2.536-3.111-.175-.219-.349-.437-.523-.657.016.02-.4-.512-.26-.333-.108-.142-.217-.283-.319-.429-.07-.1-.138-.2-.2-.3q-.175-.3.035.081l-.273,1.009q-.457.388-.007.118l.285-.13c.213-.1.428-.194.642-.292q.657-.3,1.313-.6,1.659-.766,3.3-1.565a43.635,43.635,0,0,0,5.945-3.283,2.053,2.053,0,0,0,.718-2.736,2.016,2.016,0,0,0-2.736-.718Z"/><path class="e" d="M121.687,129.323a58.792,58.792,0,0,0,8.427,11.242,2.012,2.012,0,0,0,2.828,0c1.6-1.985,3.251-3.936,4.87-5.909.85-1.035,1.7-2.068,2.536-3.117a12.851,12.851,0,0,0,1.81-2.528,2.867,2.867,0,0,0-1.638-3.989c-.919-.412-1.849-.8-2.774-1.2a38.248,38.248,0,0,1-6.057-3,2,2,0,0,0-2.019,3.454,31.949,31.949,0,0,0,4.764,2.436c.837.37,1.679.728,2.52,1.087.368.158.736.315,1.1.475q.266.115.529.234l.163.073q.458.26,0-.117l-.273-1.009c.134-.245.151-.279.053-.1a2.03,2.03,0,0,1-.128.2c-.1.157-.221.306-.335.457-.153.2-.445.57-.721.915-.873,1.093-1.762,2.171-2.651,3.25-1.526,1.854-3.072,3.692-4.582,5.559h2.828a54.3,54.3,0,0,1-7.8-10.432c-1.336-2.2-4.8-.188-3.454,2.019Z"/><path class="e" d="M135.738,265.3a11.425,11.425,0,0,0-5.443-2.111,14.338,14.338,0,0,0-5.911.079,2,2,0,0,0,1.064,3.858c.143-.041.287-.076.433-.105.095-.019.189-.034.284-.051.272-.048-.192.031-.231.031.385,0,.774-.066,1.16-.071.405-.006.811.006,1.215.033q.346.022.692.058l.254.029c.457.05-.478-.077-.024,0a16.4,16.4,0,0,1,2.43.552c.184.059.365.123.545.191s.388.24-.07-.034c.075.045.163.074.241.112q.226.11.444.237c.149.089.656.468.088.025a2.186,2.186,0,0,0,1.415.586,2,2,0,0,0,1.414-3.415Z"/><path class="e" d="M134.777,287.656c-13.69-3.231-28.666-4-42.39-.566-2.5.624-1.439,4.483,1.063,3.857,13.023-3.26,27.275-2.5,40.264.566,2.5.591,3.572-3.265,1.063-3.857Z"/><path class="e" d="M135.3,277.18c-5.093-2.5-11.21-2.993-16.787-3.293a90.491,90.491,0,0,0-20.643,1.128,2.018,2.018,0,0,0-1.4,2.461,2.046,2.046,0,0,0,2.46,1.4,85.7,85.7,0,0,1,19.206-1c4.919.246,10.845.658,15.142,2.766,2.3,1.129,4.333-2.319,2.019-3.454Z"/><path class="e" d="M158.539,43.938a33.777,33.777,0,0,1-8.073,6.625,13.916,13.916,0,0,1-5.1,1.759c-.848.08-3.415-.193-3.215-1.657A2.02,2.02,0,0,0,138.8,48.72c-6.423,5.064-13.3,10.349-21.375,12.385a24.307,24.307,0,0,1-5.929.763c-2.121,0-4.308-.414-6.282.609a9.283,9.283,0,0,0-3.237,3.355c-.444.67-1.141,2.142-1.988,2.212-2.547.212-2.57,4.214,0,4a5.793,5.793,0,0,0,4.3-2.542c.8-1.05,1.4-2.478,2.464-3.292a3.97,3.97,0,0,1,2.667-.416c.967.044,1.928.093,2.9.059a29.6,29.6,0,0,0,6.562-.993c8.605-2.3,15.873-7.892,22.747-13.312L138.29,49.6a5.666,5.666,0,0,0,3.134,5.987c2.508,1.262,5.462.732,7.988-.194,4.725-1.732,8.515-5.051,11.955-8.629,1.785-1.856-1.04-4.688-2.828-2.828Z"/><path class="e" d="M120.776,41.074a107.864,107.864,0,0,0-9.348,6.748,2.006,2.006,0,0,0,0,2.829,2.058,2.058,0,0,0,2.828,0q.529-.426,1.063-.844c.062-.049.629-.489.264-.208l.539-.412q1.082-.82,2.183-1.612,2.2-1.584,4.49-3.047a2,2,0,1,0-2.019-3.454Z"/><path class="a" d="M85.493,220.027c6.776-.367,13.238.34,18.446,5.65,3.074,3.133,8.917,8.126,9.348,13.113.172,1.986-1.119,5.059-3.307,6.011l-6.029,13.144c1.537,1.7,1.685,2.951.8,3.983a4.7,4.7,0,0,1-4.473,1.619,8.025,8.025,0,0,1-4.464-2.058c.511,1.324-3.164,2.892-4.1,3.047-3.474.575-5.778-1.111-8.089-3.365.755,3.142-4.02,6.328-7.321,3.821-3.381-2.568-5.8-4.609-7.613-8.1-1.757-3.385-2.376-7-3.408-9.471-1.614-4.157-5.294-7.053-4.68-9.629,1.01-4.788,6.2-10.542,9.128-13.16,3.774-3.378,10.907-4.347,15.766-4.61"/><path class="e" d="M100.424,237.6c.747,1.564,12.786,22.576,15.026,26.377l1.707-.679c-3.024-7.459-22.866-51.118-27.547-60.505a2.277,2.277,0,0,0-2.836-1.115c-.28.1-.563.213-.845.321a2.178,2.178,0,0,0-1.211,2.929c2.344,5.191,5.408,12.214,8.373,17.465,2.5,4.426,5.252,10.556,7.333,15.207"/><path class="e" d="M98.7,238.607c1.42,2.924,3.177,5.719,4.783,8.543q3.744,6.581,7.523,13.141c.9,1.566,1.8,3.134,2.72,4.692a2.019,2.019,0,0,0,2.259.919l1.707-.678c.911-.363,1.839-1.373,1.4-2.461-4.7-11.557-10.089-22.864-15.269-34.209q-4.471-9.793-9.024-19.55c-1-2.127-2-4.253-3.032-6.363-.865-1.768-2.19-3.155-4.323-3.107-2.757.063-5.393,2.4-4.826,5.287a19.706,19.706,0,0,0,1.663,3.969q.958,2.133,1.931,4.26c1.387,3.016,2.81,6.019,4.383,8.942,2.929,5.442,5.583,10.972,8.108,16.615a2.015,2.015,0,0,0,2.737.717,2.049,2.049,0,0,0,.717-2.736c-2.142-4.788-4.274-9.6-6.781-14.21s-4.8-9.3-6.958-14.09q-.753-1.667-1.5-3.334c-.118-.261-.491-.762-.349-1.074-.058.127.7-.356.874-.346.616.036,1.042,1.479,1.3,2,1.01,2.088,2,4.186,2.98,6.286q8.883,18.974,17.414,38.113,1.959,4.371,3.892,8.756.709,1.615,1.41,3.237.149.346.3.693c.065.15.333.79.085.2q.211.5.418,1.009l1.4-2.461-1.707.679,2.259.919c-4.452-7.56-8.78-15.2-13.081-22.845-.657-1.167-1.359-2.325-1.945-3.531-1.124-2.315-4.575-.29-3.454,2.019Z"/><path class="e" d="M85.493,222.027a29.267,29.267,0,0,1,10.349.929c3.379,1.063,5.743,3.228,8.213,5.653,2.372,2.329,4.885,4.718,6.418,7.712,1.174,2.292,1.136,5.473-1.5,6.753-2.316,1.123-.29,4.574,2.018,3.454a8.458,8.458,0,0,0,4.311-7.335c.022-3.182-1.9-6.1-3.8-8.486a77.854,77.854,0,0,0-6.142-6.444,20.723,20.723,0,0,0-8.625-5.218,32.837,32.837,0,0,0-11.235-1.018c-2.561.131-2.577,4.131,0,4Z"/><path class="a" d="M97.781,235.243c2.029,3.7,7.234,9.893,9.262,13.589.57,1.038,2.361,4.078,2.445,5.259.092,1.3-2.015,4.568-6.111,3.167,1.624,1.833,2.388,3.489,1.37,4.67a4.7,4.7,0,0,1-4.473,1.619,8.025,8.025,0,0,1-4.464-2.058c.141,1.623-2.368,2.47-3.3,2.625-3.474.575-6.278-.89-8.885-2.943-1.955,3.633-4.02,6.328-7.321,3.821-3.381-2.568-5.8-4.609-7.613-8.1"/><path class="e" d="M75.872,255.656a35.949,35.949,0,0,0,6.335,6.929,2.161,2.161,0,0,0,1.414.586,2,2,0,0,0,1.414-3.414,32.618,32.618,0,0,1-5.183-5.405l.312.4q-.427-.554-.838-1.119a2.177,2.177,0,0,0-1.2-.919,2.043,2.043,0,0,0-1.541.2,2.021,2.021,0,0,0-.717,2.736Z"/><path class="e" d="M81.625,248.622A107.923,107.923,0,0,0,94.4,262.9a2.042,2.042,0,0,0,2.829,0,2.022,2.022,0,0,0,0-2.828A102.561,102.561,0,0,1,85.079,246.6a2.065,2.065,0,0,0-2.737-.717,2.013,2.013,0,0,0-.717,2.736Z"/><path class="e" d="M88.983,242.212a149.055,149.055,0,0,0,13.554,17.147,2,2,0,0,0,2.828-2.828,141.35,141.35,0,0,1-12.928-16.338,2.052,2.052,0,0,0-2.737-.718,2.019,2.019,0,0,0-.717,2.737Z"/><path class="e" d="M85.493,218.027c-5.377.3-11.548,1.016-16.03,4.278a30.716,30.716,0,0,0-5.384,5.359,29.348,29.348,0,0,0-4.7,7.411,8.78,8.78,0,0,0-.846,3.412,7.354,7.354,0,0,0,1.162,3.467c1.361,2.33,3.1,4.361,4.012,6.941,1.09,3.087,1.792,6.268,3.344,9.183a22.131,22.131,0,0,0,5.62,6.591c2.564,2.111,5.193,4.114,8.666,2.789,2.841-1.084,4.8-3.722,4.213-6.819l-3.343,1.946c2.73,2.635,6.13,4.784,10.1,3.866,2.384-.551,6.193-2.512,5.431-5.494L94.4,262.9c2.862,2.264,7.032,3.917,10.414,1.619a4.962,4.962,0,0,0,2.482-4.052c-.044-1.93-1.448-3.522-2.762-4.783l-1.946,3.343c2.707,1.023,6.115,1.168,8.262-1.1a5.118,5.118,0,0,0,.852-5.969c-1.971-3.807-4.953-7.08-7.189-10.737a85.7,85.7,0,0,1-4.553-9.1,2.015,2.015,0,0,0-2.736-.718,2.048,2.048,0,0,0-.718,2.737,88.066,88.066,0,0,0,4.385,8.828c1.258,2.087,2.683,4.047,4.08,6.042.772,1.1,1.541,2.207,2.276,3.335.276.422.552.845.8,1.282.1.176.207.351.292.535.057.123-.115-.081-.009-.016-.087-.053-.006.461.034.137-.011.088-.232.737-.113.456a1.272,1.272,0,0,1-.612.687c-1.15.7-2.761.213-3.99-.252-1.913-.723-3.318,2.026-1.946,3.343a5.913,5.913,0,0,1,1.588,1.983c.066.212-.076.2.044.016a2.661,2.661,0,0,1-1.047.862c-1.7.771-3.743-.257-5.062-1.3-1.493-1.182-3.876-.14-3.343,1.946a.8.8,0,0,1,.115-.746c.138-.21.148-.245.028-.1a1.934,1.934,0,0,0-.264.253,10.421,10.421,0,0,1-1.216.7,4.724,4.724,0,0,1-1.841.514c-2.335.112-4.08-1.351-5.668-2.883a2.016,2.016,0,0,0-3.342,1.945c.261,1.372-1.9,2.3-2.982,2.185a4.832,4.832,0,0,1-2.3-1.313,34.286,34.286,0,0,1-2.84-2.448,17.21,17.21,0,0,1-4.046-6.218c-.883-2.3-1.4-4.726-2.318-7.014a38.024,38.024,0,0,0-3.646-6.294c-1.138-1.776-1.22-2.383-.388-4.3a29.375,29.375,0,0,1,8.207-10.454c3.747-3.037,9.482-3.555,14.112-3.817,2.56-.145,2.576-4.146,0-4Z"/><path class="a" d="M210.09,257.686c.844-.727,1.656-1.444,2.4-2.113,3.834-3.463,8.069-5.843,9.438-10.891a17.236,17.236,0,0,0-.513-11.331c-.788-2.177-2.579-5.718-4.111-7.112-2.022-1.839-5.077-4.4-8.074-5.037-3.276-.794-11.407,1.223-14.963,1.037-5.1-.265-8.688,1.537-13.481,3.63-4.448,1.942-8.89,3.519-13.334,5.741a3.025,3.025,0,0,0-.518,4.666c2.108,1.889,6.889.556,10,.556l2.421.293c-3.9,2.844-8.745,6.4-10.273,7.929-1.964,1.969-4.273,3.686-4.074,5.778.381,4,4.074,3.63,5.482,2.889l.124-.066-.865,1.1c-1.782,2.27-2.222,5.037-.188,6.249a8.007,8.007,0,0,0,7.86-.9c-1.386,1.858-1.21,4.034.415,4.967a7.651,7.651,0,0,0,5.527.3,32.438,32.438,0,0,0,5.637-3c1.753-.984,9.267-5.468,13.024-8.165l-.423.4c-2.037,1.926-5.151,4.625-6.3,6.444a2.393,2.393,0,0,0,1.63,3.778,5.48,5.48,0,0,0,4.148-.315C202.94,263.6,206.759,260.559,210.09,257.686Z"/><path class="e" d="M176.932,234.832c-1.978.026-3.932.4-5.909.451-.855.021-3,.164-2.972-1.131.016-.749.448-.838,1.075-1.143,1.244-.6,2.506-1.172,3.777-1.717,2.506-1.072,5.047-2.06,7.556-3.123,4.157-1.761,8.29-3.985,12.922-3.955a89.873,89.873,0,0,0,10.487-.97,22.454,22.454,0,0,1,4.421-.194,12.158,12.158,0,0,1,5.593,2.875,14.467,14.467,0,0,1,3.747,4.093,23.745,23.745,0,0,1,2.429,5.647c1.113,4.031.726,8.89-2.01,12.219a30.84,30.84,0,0,1-4.363,4.059c-1.637,1.348-3.206,2.769-4.809,4.156-1.73,1.5-3.485,2.976-5.31,4.357-1.242.939-2.86,2.435-4.477,2.629-.447.053-2.075.022-2.234-.517-.136-.461.706-1.225.984-1.539,1.594-1.793,3.429-3.363,5.174-5,1.878-1.768-.954-4.592-2.829-2.828a71.262,71.262,0,0,0-5.4,5.26c-1.653,1.926-2.822,4.518-.934,6.748,1.566,1.849,4.687,2.281,6.912,1.586a17.823,17.823,0,0,0,5.235-3.2c3.977-3.049,7.675-6.434,11.514-9.651a21.773,21.773,0,0,0,4.909-5.359,17.515,17.515,0,0,0,2.18-7.679c.377-5.13-1.7-10.752-4.792-14.816a22.028,22.028,0,0,0-5.876-5.008,12.585,12.585,0,0,0-6.571-2.064c-4.175-.04-8.259,1.194-12.426,1.233a26.916,26.916,0,0,0-7.493.819,67.849,67.849,0,0,0-7.893,3.17c-3.315,1.437-6.7,2.712-10,4.181-2.66,1.184-5.513,2.363-5.491,5.755.043,6.832,8.676,4.712,12.871,4.657,2.572-.034,2.579-4.034,0-4Z"/><path class="e" d="M187.9,238.94c.451-.349-.426.319-.573.429q-.541.4-1.087.8-1.2.877-2.412,1.742-2.655,1.9-5.326,3.779a107.5,107.5,0,0,0-10.173,7.654c-1.917,1.726.919,4.548,2.828,2.828a103.122,103.122,0,0,1,9.74-7.293c3.3-2.332,6.636-4.635,9.832-7.111a2.01,2.01,0,0,0,0-2.828,2.052,2.052,0,0,0-2.829,0Z"/><path class="e" d="M201.888,251.825c-.449.365-1.442,1.066-2.2,1.58-1.082.734-2.181,1.444-3.285,2.145q-3.162,2.007-6.384,3.915a57.775,57.775,0,0,1-6.45,3.7,6.157,6.157,0,0,1-4.243.383c-1.295-.434-.807-1.522-.18-2.43,1.109-1.608-1.123-3.9-2.737-2.737a6.122,6.122,0,0,1-5.832.922c.236.109.022.029-.064-.063a1.117,1.117,0,0,1-.275-.348,1.733,1.733,0,0,1,.048-.908,7.485,7.485,0,0,1,1.741-2.918c1.352-1.723-.291-4.263-2.424-3.141-.47.248.113.011-.25.11-.071.02-.78.174-.414.125a1.937,1.937,0,0,1-1.15-.069.868.868,0,0,1-.58-.526,1.722,1.722,0,0,1,0-1.616c.734-1.447,2.433-2.7,3.6-3.784.752-.695,1.559-1.332,2.365-1.963,4.085-3.2,8.417-6.079,12.5-9.288a2.013,2.013,0,0,0,0-2.829,2.051,2.051,0,0,0-2.829,0c-.24.189.324-.242-.093.072l-.413.312q-.636.475-1.277.944-1.47,1.078-2.944,2.15c-2.224,1.623-4.448,3.247-6.63,4.927-3.882,2.989-11.74,8.549-7.11,13.947,1.789,2.087,4.948,2.153,7.249.942l-2.424-3.141a12.243,12.243,0,0,0-2.842,5.016,5.024,5.024,0,0,0,1.92,5.293c2.88,1.988,7.48,1.209,10.152-.712l-2.736-2.736a5.69,5.69,0,0,0-.64,5.879,5.885,5.885,0,0,0,4.824,2.714c4.055.433,7.307-1.962,10.638-3.882a107.45,107.45,0,0,0,14.2-9.159,2.014,2.014,0,0,0,0-2.829,2.048,2.048,0,0,0-2.829,0Z"/><path class="e" d="M195.182,245.179c-3.45,2.147-6.863,4.355-10.176,6.71a89.227,89.227,0,0,0-8.748,6.492c-1.9,1.742.933,4.565,2.829,2.828a32.964,32.964,0,0,1,3.522-2.7c1.584-1.1,3.13-2.256,4.7-3.37,3.222-2.279,6.537-4.42,9.887-6.5,2.181-1.357.175-4.819-2.019-3.454Z"/><path class="e" d="M132.115,108.632c2.441,2.39,6.306,3.085,9.582,3.083s7.142-.692,9.584-3.083c1.843-1.8-.986-4.631-2.828-2.828-.081.079-.493.429-.236.225s-.014.009-.08.051c-.11.071-.217.146-.329.214-.212.13-.43.25-.652.362-.149.075-.3.146-.454.213.272-.12.03-.014-.113.037a13.992,13.992,0,0,1-4.892.809,13.6,13.6,0,0,1-4.805-.776c-.034-.012-.6-.245-.2-.07-.128-.056-.255-.116-.381-.177-.247-.122-.489-.253-.723-.4-.178-.11-.343-.249-.523-.354.512.3.028.01-.121-.136-1.84-1.8-4.671,1.024-2.828,2.828Z"/><path class="e" d="M141.175,90.639a39.069,39.069,0,0,1,.919,4.206l-.071-.531a2.558,2.558,0,0,1,.015.58l.072-.531a1.463,1.463,0,0,1-.064.261l.2-.478a.983.983,0,0,1-.093.168l.313-.4a.881.881,0,0,1-.137.136l.405-.313a2.8,2.8,0,0,1-.334.176l.478-.2a2.491,2.491,0,0,1-.561.164l.531-.072a2.212,2.212,0,0,1-.527,0l.532.072c-.2-.028-.394-.076-.593-.1a2.216,2.216,0,0,0-1.541.2A2,2,0,0,0,140,96.705a1.913,1.913,0,0,0,1.2.919c.438.059.864.171,1.31.191a4.156,4.156,0,0,0,1.912-.453,2.728,2.728,0,0,0,1.522-1.8,4.6,4.6,0,0,0-.02-1.958c-.229-1.355-.543-2.7-.891-4.027a2,2,0,1,0-3.857,1.063Z"/><path class="e" d="M118.9,79.258c-.7,2.283-.245,7.534,4.08,7.981,5.716-.034,6.02-6.383,4.1-9.368C125.505,75.427,120.872,74.41,118.9,79.258Z"/><path class="e" d="M163.7,79.258c.7,2.283.245,7.534-4.079,7.981-5.716-.034-6.021-6.383-4.1-9.368C157.1,75.427,161.729,74.41,163.7,79.258Z"/></svg>